<svg width="24" height="26" viewBox="0 0 24 26" fill="none" xmlns="http://www.w3.org/2000/svg">
<path d="M22.7422 1.4682L23.4004 2.12642C24.3075 3.03455 24.1702 4.64441 23.0914 5.72211L9.51748 19.296L5.11965 20.9048C4.56741 21.1078 4.02967 20.8445 3.92034 20.3191C3.88351 20.1285 3.90091 19.9313 3.97054 19.7501L5.61053 15.3143L19.1465 1.77723C20.2253 0.699525 21.8352 0.56007 22.7422 1.4682ZM8.92508 2.81812C9.07159 2.81812 9.21666 2.84697 9.35201 2.90304C9.48737 2.9591 9.61036 3.04128 9.71395 3.14488C9.81755 3.24847 9.89973 3.37146 9.95579 3.50682C10.0119 3.64217 10.0407 3.78724 10.0407 3.93375C10.0407 4.08026 10.0119 4.22533 9.95579 4.36069C9.89973 4.49604 9.81755 4.61903 9.71395 4.72262C9.61036 4.82622 9.48737 4.9084 9.35201 4.96446C9.21666 5.02053 9.07159 5.04939 8.92508 5.04939H4.46254C3.87077 5.04939 3.30324 5.28447 2.88479 5.70291C2.46635 6.12135 2.23127 6.68889 2.23127 7.28066V20.6683C2.23127 21.26 2.46635 21.8276 2.88479 22.246C3.30324 22.6645 3.87077 22.8995 4.46254 22.8995H17.8502C18.4419 22.8995 19.0095 22.6645 19.4279 22.246C19.8464 21.8276 20.0814 21.26 20.0814 20.6683V16.2057C20.0814 15.9099 20.199 15.6261 20.4082 15.4169C20.6174 15.2076 20.9012 15.0901 21.1971 15.0901C21.493 15.0901 21.7767 15.2076 21.9859 15.4169C22.1952 15.6261 22.3127 15.9099 22.3127 16.2057V20.6683C22.3127 21.8518 21.8425 22.9869 21.0057 23.8238C20.1688 24.6607 19.0337 25.1308 17.8502 25.1308H4.46254C3.279 25.1308 2.14394 24.6607 1.30705 23.8238C0.470159 22.9869 0 21.8518 0 20.6683V7.28066C0 6.09712 0.470159 4.96205 1.30705 4.12516C2.14394 3.28828 3.279 2.81812 4.46254 2.81812H8.92508Z" fill="#29424D"/>
</svg>
