<?xml version="1.0" encoding="UTF-8"?>
<svg id="Layer_1" xmlns="http://www.w3.org/2000/svg" version="1.1" viewBox="0 0 32 32">
  <!-- Generator: Adobe Illustrator 29.5.0, SVG Export Plug-In . SVG Version: 2.1.0 Build 137)  -->
  <defs>
    <style>
      .st0 {
        fill: #fffefe;
      }
    </style>
  </defs>
  <path class="st0" d="M16,4c-2.4,0-4.4,2-4.4,4.4s2,4.4,4.4,4.4,4.4-2,4.4-4.4-2-4.4-4.4-4.4ZM16,12.7h-1.5c-1,0-1.9.3-2.7.7-.8.5-1.5,1.2-2,2,.8,0,1.5.5,1.9,1.1.6-1,1.6-1.7,2.8-1.7h3c.5,0,.9,0,1.3.3.2-.8.8-1.4,1.5-1.7-.8-.5-1.8-.8-2.8-.8h-1.5ZM16,6.2c1.2,0,2.2,1,2.2,2.2s-1,2.2-2.2,2.2-2.2-1-2.2-2.2,1-2.2,2.2-2.2ZM21.5,14.9c-.3,0-.6.1-.8.3-.2.2-.3.5-.3.8s.1.6.3.8.5.3.8.3.6-.1.8-.3c.2-.2.3-.5.3-.8s-.1-.6-.3-.8c-.2-.2-.5-.3-.8-.3ZM9.5,17.1c-.3,0-.6.1-.8.3-.2.2-.3.5-.3.8s.1.6.3.8c.2.2.5.3.8.3s.6-.1.8-.3c.2-.2.3-.5.3-.8s-.1-.6-.3-.8c-.2-.2-.5-.3-.8-.3ZM23.3,18c-.5.5-1.2.8-1.9.8s-.1,0-.2,0l1.4,3.2.2.5h.6c0,0,5.5,1.2,5.5,1.2l.4-2.1-4.9-1-1.1-2.5ZM14.9,18.2c-.3,0-.6.1-.8.3-.2.2-.3.5-.3.8s.1.6.3.8c.2.2.5.3.8.3s.6-.1.8-.3c.2-.2.3-.5.3-.8s-.1-.6-.3-.8c-.2-.2-.5-.3-.8-.3ZM7.7,20.3v.2c0,0-5,1-5,1l.4,2.1,5.5-1.1h.6c0,0,.2-.6.2-.6l.4-1c-.4,0-.8,0-1.1,0-.4-.1-.7-.3-1-.5ZM18.2,21.5c-.3,0-.6.1-.8.3s-.3.5-.3.8.1.6.3.8.5.3.8.3.6-.1.8-.3c.2-.2.3-.5.3-.8s-.1-.6-.3-.8c-.2-.2-.5-.3-.8-.3ZM.7,25.8v2.2h30.5v-2.2H.7Z"/>
</svg>