<?xml version="1.0" encoding="UTF-8"?>
<svg id="Layer_1" xmlns="http://www.w3.org/2000/svg" version="1.1" viewBox="0 0 32 32">
  <!-- Generator: Adobe Illustrator 29.5.0, SVG Export Plug-In . SVG Version: 2.1.0 Build 137)  -->
  <defs>
    <style>
      .st0 {
        fill: #fffefe;
      }
    </style>
  </defs>
  <path class="st0" d="M16,3.4c-2.5,0-4.6,2.1-4.6,4.6s2.1,4.6,4.6,4.6,4.6-2.1,4.6-4.6-2.1-4.6-4.6-4.6ZM16,12.6h-1.6c-1,0-2,.3-2.9.8-.9.5-1.6,1.2-2.1,2.1.8,0,1.5.5,2,1.2.6-1.1,1.7-1.7,3-1.7h3.2c.5,0,1,.1,1.4.3.2-.8.8-1.4,1.5-1.7-.9-.5-1.9-.8-2.9-.8h-1.6ZM16,5.7c1.3,0,2.3,1,2.3,2.3s-1,2.3-2.3,2.3-2.3-1-2.3-2.3,1-2.3,2.3-2.3ZM21.7,14.9c-.3,0-.6.1-.8.3-.2.2-.3.5-.3.8s.1.6.3.8.5.3.8.3.6-.1.8-.3c.2-.2.3-.5.3-.8s-.1-.6-.3-.8c-.2-.2-.5-.3-.8-.3ZM9.1,17.1c-.3,0-.6.1-.8.3-.2.2-.3.5-.3.8s.1.6.3.8c.2.2.5.3.8.3s.6-.1.8-.3c.2-.2.3-.5.3-.8s-.1-.6-.3-.8c-.2-.2-.5-.3-.8-.3ZM23.7,18.1c-.5.5-1.2.8-2,.8s-.1,0-.2,0l1.4,3.3.2.5h.6c0,.1,5.7,1.2,5.7,1.2l.4-2.2-5.1-1-1.1-2.6ZM14.9,18.3c-.3,0-.6.1-.8.3-.2.2-.3.5-.3.8s.1.6.3.8c.2.2.5.3.8.3s.6-.1.8-.3c.2-.2.3-.5.3-.8s-.1-.6-.3-.8c-.2-.2-.5-.3-.8-.3ZM7.3,20.5v.3c-.1,0-5.2,1-5.2,1l.4,2.2,5.7-1.1h.6c0-.1.2-.6.2-.6l.5-1.1c-.4,0-.8,0-1.2,0-.4-.1-.7-.3-1-.6ZM18.3,21.7c-.3,0-.6.1-.8.3s-.3.5-.3.8.1.6.3.8.5.3.8.3.6-.1.8-.3c.2-.2.3-.5.3-.8s-.1-.6-.3-.8c-.2-.2-.5-.3-.8-.3ZM0,26.3v2.3h32v-2.3H0Z"/>
</svg>