<?xml version="1.0" encoding="UTF-8"?>
<svg viewBox="0 0 32 32" xmlns="http://www.w3.org/2000/svg">
  <!-- Generator: Adobe Illustrator 29.5.0, SVG Export Plug-In . SVG Version: 2.1.0 Build 137)  -->
  <defs>
    <style>
      .st0 {
        fill: #fff;
      }
    </style>
  </defs>
  <path fill="currentColor" d="M18.2,24.3c.4,0,.9-.2,1.2-.5s.5-.8.5-1.2-.2-.9-.5-1.2c-.6-.6-1.8-.6-2.4,0-.3.3-.5.8-.5,1.2s.2.9.5,1.2c.3.3.7.5,1.2.5Z"/>
  <path fill="currentColor" d="M13.7,18.1c-.3.3-.5.7-.5,1.2s.2.9.5,1.2c.3.3.8.5,1.2.5s.9-.2,1.2-.5c.3-.3.5-.8.5-1.2s-.2-.9-.5-1.2c-.6-.6-1.8-.6-2.4,0Z"/>
  <path fill="currentColor" d="M21.4,18.1l-1.1-.2,1.8,4.3.3.8,7,1.4.6-3.3-5.2-1.1-1.3-3-.6.6c-.4.4-.9.6-1.5.6Z"/>
  <path fill="currentColor" d="M20.3,14.8c-.3.3-.5.7-.5,1.2s.2.9.5,1.2.8.5,1.2.5.9-.2,1.2-.5c.3-.3.5-.8.5-1.2s-.2-.9-.5-1.2c-.6-.6-1.8-.6-2.4,0Z"/>
  <rect fill="currentColor" y="25.3" width="32" height="3.4"/>
  <path fill="currentColor" d="M11.1,16.9l.6.8.5-.8c.5-.8,1.4-1.4,2.3-1.4h3c.4,0,.8,0,1.1.2l.6.3.2-.7c.2-.6.6-1.1,1.2-1.3l1-.5-1-.6c-.9-.6-2-.9-3.1-.9h-.6c2.3-.4,4-2.5,4-4.9s-2.2-5-5-5-5,2.2-5,5,1.7,4.5,4,4.9h-.6c-1.1,0-2.1.3-3.1.8-.9.5-1.7,1.3-2.2,2.2l-.5.8h.9c.6.2,1.1.5,1.5,1ZM14.4,7.2c0-.9.7-1.6,1.6-1.6s1.6.7,1.6,1.6-.7,1.6-1.6,1.6-1.6-.7-1.6-1.6Z"/>
  <path fill="currentColor" d="M8.6,23.1l.9-.2,1.2-2.8h-1c-.3.2-.6.1-.9,0s-.6-.2-.8-.4l-.6-.5-.3.7-5.2,1.1.6,3.3,6.1-1.2Z"/>
  <path fill="currentColor" d="M9.4,19.9c.4,0,.9-.2,1.2-.5.3-.3.5-.8.5-1.2s-.2-.9-.5-1.2c-.6-.6-1.8-.6-2.4,0-.3.3-.5.8-.5,1.2s.2.9.5,1.2c.3.3.8.5,1.2.5Z"/>
</svg>