<svg width="386" height="166" viewBox="0 0 386 166" fill="none" xmlns="http://www.w3.org/2000/svg">
<rect width="386" height="166" rx="20" fill="#FFFEFE" fill-opacity="0.7"/>
<path d="M39.7599 15.3636V27H37.6349L32.5724 19.6761H32.4872V27H30.027V15.3636H32.1861L37.2088 22.6818H37.3111V15.3636H39.7599ZM45.7244 27.1705C44.8267 27.1705 44.054 26.9886 43.4062 26.625C42.7623 26.2576 42.2661 25.7386 41.9176 25.0682C41.5691 24.3939 41.3949 23.5966 41.3949 22.6761C41.3949 21.7784 41.5691 20.9905 41.9176 20.3125C42.2661 19.6345 42.7566 19.1061 43.3892 18.7273C44.0256 18.3485 44.7718 18.1591 45.6278 18.1591C46.2036 18.1591 46.7396 18.2519 47.2358 18.4375C47.7358 18.6193 48.1714 18.8939 48.5426 19.2614C48.9176 19.6288 49.2093 20.0909 49.4176 20.6477C49.6259 21.2008 49.7301 21.8485 49.7301 22.5909V23.2557H42.3608V21.7557H47.4517C47.4517 21.4072 47.3759 21.0985 47.2244 20.8295C47.0729 20.5606 46.8627 20.3504 46.5938 20.1989C46.3286 20.0436 46.0199 19.9659 45.6676 19.9659C45.3002 19.9659 44.9744 20.0511 44.6903 20.2216C44.41 20.3883 44.1903 20.6136 44.0312 20.8977C43.8722 21.178 43.7907 21.4905 43.7869 21.8352V23.2614C43.7869 23.6932 43.8665 24.0663 44.0256 24.3807C44.1884 24.6951 44.4176 24.9375 44.7131 25.108C45.0085 25.2784 45.3589 25.3636 45.7642 25.3636C46.0331 25.3636 46.2794 25.3258 46.5028 25.25C46.7263 25.1742 46.9176 25.0606 47.0767 24.9091C47.2358 24.7576 47.357 24.572 47.4403 24.3523L49.679 24.5C49.5653 25.0379 49.3324 25.5076 48.9801 25.9091C48.6316 26.3068 48.1809 26.6174 47.6278 26.8409C47.0786 27.0606 46.4441 27.1705 45.7244 27.1705ZM55.2528 27.1705C54.3589 27.1705 53.59 26.9811 52.946 26.6023C52.3059 26.2197 51.8134 25.6894 51.4688 25.0114C51.1278 24.3333 50.9574 23.553 50.9574 22.6705C50.9574 21.7765 51.1297 20.9924 51.4744 20.3182C51.8229 19.6402 52.3172 19.1117 52.9574 18.733C53.5975 18.3504 54.3589 18.1591 55.2415 18.1591C56.0028 18.1591 56.6695 18.2973 57.2415 18.5739C57.8134 18.8504 58.2661 19.2386 58.5994 19.7386C58.9328 20.2386 59.1165 20.8258 59.1506 21.5H56.8665C56.8021 21.0644 56.6316 20.714 56.3551 20.4489C56.0824 20.1799 55.7244 20.0455 55.2812 20.0455C54.9062 20.0455 54.5786 20.1477 54.2983 20.3523C54.0218 20.553 53.8059 20.8466 53.6506 21.233C53.4953 21.6193 53.4176 22.0871 53.4176 22.6364C53.4176 23.1932 53.4934 23.6667 53.6449 24.0568C53.8002 24.447 54.018 24.7443 54.2983 24.9489C54.5786 25.1534 54.9062 25.2557 55.2812 25.2557C55.5578 25.2557 55.8059 25.1989 56.0256 25.0852C56.2491 24.9716 56.4328 24.8068 56.5767 24.5909C56.7244 24.3712 56.821 24.108 56.8665 23.8011H59.1506C59.1127 24.4678 58.9309 25.0549 58.6051 25.5625C58.2831 26.0663 57.8381 26.4602 57.2699 26.7443C56.7017 27.0284 56.0294 27.1705 55.2528 27.1705ZM62.8935 24.4886L62.8991 21.5852H63.2514L66.0469 18.2727H68.8253L65.0696 22.6591H64.4957L62.8935 24.4886ZM60.7003 27V15.3636H63.1207V27H60.7003ZM66.1548 27L63.5866 23.1989L65.2003 21.4886L68.9901 27H66.1548ZM84.0284 19.4375H81.5398C81.4943 19.1155 81.4015 18.8295 81.2614 18.5795C81.1212 18.3258 80.9413 18.1098 80.7216 17.9318C80.5019 17.7538 80.2481 17.6174 79.9602 17.5227C79.6761 17.428 79.3674 17.3807 79.0341 17.3807C78.4318 17.3807 77.9072 17.5303 77.4602 17.8295C77.0133 18.125 76.6667 18.5568 76.4205 19.125C76.1742 19.6894 76.0511 20.375 76.0511 21.1818C76.0511 22.0114 76.1742 22.7083 76.4205 23.2727C76.6705 23.8371 77.0189 24.2633 77.4659 24.5511C77.9129 24.839 78.4299 24.983 79.017 24.983C79.3466 24.983 79.6515 24.9394 79.9318 24.8523C80.2159 24.7652 80.4678 24.6383 80.6875 24.4716C80.9072 24.3011 81.089 24.0947 81.233 23.8523C81.3807 23.6098 81.483 23.3333 81.5398 23.0227L84.0284 23.0341C83.964 23.5682 83.803 24.0833 83.5455 24.5795C83.2917 25.072 82.9489 25.5133 82.517 25.9034C82.089 26.2898 81.5777 26.5966 80.983 26.8239C80.392 27.0473 79.7235 27.1591 78.9773 27.1591C77.9394 27.1591 77.0114 26.9242 76.1932 26.4545C75.3788 25.9848 74.7348 25.3049 74.2614 24.4148C73.7917 23.5246 73.5568 22.447 73.5568 21.1818C73.5568 19.9129 73.7955 18.8333 74.2727 17.9432C74.75 17.053 75.3977 16.375 76.2159 15.9091C77.0341 15.4394 77.9545 15.2045 78.9773 15.2045C79.6515 15.2045 80.2765 15.2992 80.8523 15.4886C81.4318 15.678 81.9451 15.9545 82.392 16.3182C82.839 16.678 83.2027 17.1193 83.483 17.642C83.767 18.1648 83.9489 18.7633 84.0284 19.4375ZM85.7472 27V18.2727H88.1676V27H85.7472ZM86.9631 17.1477C86.6032 17.1477 86.2945 17.0284 86.0369 16.7898C85.7831 16.5473 85.6562 16.2576 85.6562 15.9205C85.6562 15.5871 85.7831 15.3011 86.0369 15.0625C86.2945 14.8201 86.6032 14.6989 86.9631 14.6989C87.3229 14.6989 87.6297 14.8201 87.8835 15.0625C88.1411 15.3011 88.2699 15.5871 88.2699 15.9205C88.2699 16.2576 88.1411 16.5473 87.8835 16.7898C87.6297 17.0284 87.3229 17.1477 86.9631 17.1477ZM90.1065 27V18.2727H92.4531V19.7955H92.544C92.7031 19.2538 92.9702 18.8447 93.3452 18.5682C93.7202 18.2879 94.152 18.1477 94.6406 18.1477C94.7618 18.1477 94.8925 18.1553 95.0327 18.1705C95.1728 18.1856 95.2959 18.2064 95.402 18.233V20.3807C95.2884 20.3466 95.1312 20.3163 94.9304 20.2898C94.7296 20.2633 94.5459 20.25 94.3793 20.25C94.0232 20.25 93.705 20.3277 93.4247 20.483C93.1482 20.6345 92.9285 20.8466 92.7656 21.1193C92.6065 21.392 92.527 21.7064 92.527 22.0625V27H90.1065ZM100.19 27.1705C99.2964 27.1705 98.5275 26.9811 97.8835 26.6023C97.2434 26.2197 96.7509 25.6894 96.4062 25.0114C96.0653 24.3333 95.8949 23.553 95.8949 22.6705C95.8949 21.7765 96.0672 20.9924 96.4119 20.3182C96.7604 19.6402 97.2547 19.1117 97.8949 18.733C98.535 18.3504 99.2964 18.1591 100.179 18.1591C100.94 18.1591 101.607 18.2973 102.179 18.5739C102.751 18.8504 103.204 19.2386 103.537 19.7386C103.87 20.2386 104.054 20.8258 104.088 21.5H101.804C101.74 21.0644 101.569 20.714 101.293 20.4489C101.02 20.1799 100.662 20.0455 100.219 20.0455C99.8438 20.0455 99.5161 20.1477 99.2358 20.3523C98.9593 20.553 98.7434 20.8466 98.5881 21.233C98.4328 21.6193 98.3551 22.0871 98.3551 22.6364C98.3551 23.1932 98.4309 23.6667 98.5824 24.0568C98.7377 24.447 98.9555 24.7443 99.2358 24.9489C99.5161 25.1534 99.8438 25.2557 100.219 25.2557C100.495 25.2557 100.743 25.1989 100.963 25.0852C101.187 24.9716 101.37 24.8068 101.514 24.5909C101.662 24.3712 101.759 24.108 101.804 23.8011H104.088C104.05 24.4678 103.868 25.0549 103.543 25.5625C103.221 26.0663 102.776 26.4602 102.207 26.7443C101.639 27.0284 100.967 27.1705 100.19 27.1705ZM108.058 15.3636V27H105.638V15.3636H108.058ZM113.974 27.1705C113.077 27.1705 112.304 26.9886 111.656 26.625C111.012 26.2576 110.516 25.7386 110.168 25.0682C109.819 24.3939 109.645 23.5966 109.645 22.6761C109.645 21.7784 109.819 20.9905 110.168 20.3125C110.516 19.6345 111.007 19.1061 111.639 18.7273C112.276 18.3485 113.022 18.1591 113.878 18.1591C114.454 18.1591 114.99 18.2519 115.486 18.4375C115.986 18.6193 116.421 18.8939 116.793 19.2614C117.168 19.6288 117.459 20.0909 117.668 20.6477C117.876 21.2008 117.98 21.8485 117.98 22.5909V23.2557H110.611V21.7557H115.702C115.702 21.4072 115.626 21.0985 115.474 20.8295C115.323 20.5606 115.113 20.3504 114.844 20.1989C114.579 20.0436 114.27 19.9659 113.918 19.9659C113.55 19.9659 113.224 20.0511 112.94 20.2216C112.66 20.3883 112.44 20.6136 112.281 20.8977C112.122 21.178 112.041 21.4905 112.037 21.8352V23.2614C112.037 23.6932 112.116 24.0663 112.276 24.3807C112.438 24.6951 112.668 24.9375 112.963 25.108C113.259 25.2784 113.609 25.3636 114.014 25.3636C114.283 25.3636 114.529 25.3258 114.753 25.25C114.976 25.1742 115.168 25.0606 115.327 24.9091C115.486 24.7576 115.607 24.572 115.69 24.3523L117.929 24.5C117.815 25.0379 117.582 25.5076 117.23 25.9091C116.882 26.3068 116.431 26.6174 115.878 26.8409C115.329 27.0606 114.694 27.1705 113.974 27.1705ZM126.821 20.7614L124.605 20.8977C124.567 20.7083 124.486 20.5379 124.361 20.3864C124.236 20.2311 124.071 20.108 123.866 20.017C123.666 19.9223 123.425 19.875 123.145 19.875C122.77 19.875 122.454 19.9545 122.196 20.1136C121.938 20.2689 121.81 20.4773 121.81 20.7386C121.81 20.947 121.893 21.1231 122.06 21.267C122.226 21.411 122.512 21.5265 122.918 21.6136L124.497 21.9318C125.346 22.1061 125.978 22.3864 126.395 22.7727C126.812 23.1591 127.02 23.6667 127.02 24.2955C127.02 24.8674 126.851 25.3693 126.514 25.8011C126.181 26.233 125.723 26.5701 125.139 26.8125C124.56 27.0511 123.891 27.1705 123.134 27.1705C121.978 27.1705 121.058 26.9299 120.372 26.4489C119.69 25.964 119.291 25.3049 119.173 24.4716L121.554 24.3466C121.626 24.6989 121.8 24.9678 122.077 25.1534C122.353 25.3352 122.707 25.4261 123.139 25.4261C123.563 25.4261 123.904 25.3447 124.162 25.1818C124.423 25.0152 124.556 24.8011 124.56 24.5398C124.556 24.3201 124.463 24.1402 124.281 24C124.099 23.8561 123.819 23.7462 123.44 23.6705L121.929 23.3693C121.077 23.1989 120.442 22.9034 120.026 22.483C119.613 22.0625 119.406 21.5265 119.406 20.875C119.406 20.3144 119.558 19.8314 119.861 19.4261C120.168 19.0208 120.598 18.7083 121.151 18.4886C121.707 18.2689 122.359 18.1591 123.105 18.1591C124.207 18.1591 125.075 18.392 125.707 18.858C126.344 19.3239 126.715 19.9583 126.821 20.7614ZM135.815 27.1705C135.012 27.1705 134.319 27.0265 133.736 26.7386C133.152 26.4508 132.704 26.0606 132.389 25.5682C132.079 25.072 131.923 24.5189 131.923 23.9091C131.923 23.4545 132.014 23.0511 132.196 22.6989C132.378 22.3466 132.632 22.0227 132.957 21.7273C133.283 21.428 133.662 21.1307 134.094 20.8352L136.349 19.3523C136.641 19.1667 136.855 18.9716 136.991 18.767C137.128 18.5587 137.196 18.3333 137.196 18.0909C137.196 17.8598 137.103 17.6458 136.918 17.4489C136.732 17.2519 136.469 17.1553 136.128 17.1591C135.901 17.1591 135.704 17.2102 135.537 17.3125C135.37 17.411 135.24 17.5417 135.145 17.7045C135.054 17.8636 135.009 18.0417 135.009 18.2386C135.009 18.4811 135.077 18.7273 135.213 18.9773C135.349 19.2273 135.531 19.4924 135.759 19.7727C135.986 20.0492 136.234 20.3485 136.503 20.6705L142.02 27H139.497L134.895 21.875C134.592 21.5303 134.289 21.1705 133.986 20.7955C133.687 20.4167 133.437 20.0152 133.236 19.5909C133.035 19.1629 132.935 18.6989 132.935 18.1989C132.935 17.6345 133.065 17.1269 133.327 16.6761C133.592 16.2254 133.963 15.8693 134.44 15.608C134.918 15.3428 135.474 15.2102 136.111 15.2102C136.732 15.2102 137.268 15.3371 137.719 15.5909C138.173 15.8409 138.522 16.1742 138.764 16.5909C139.01 17.0038 139.134 17.4583 139.134 17.9545C139.134 18.5038 138.997 19.0019 138.724 19.4489C138.455 19.892 138.077 20.2898 137.588 20.642L135.213 22.3523C134.891 22.5871 134.652 22.8277 134.497 23.0739C134.346 23.3163 134.27 23.5492 134.27 23.7727C134.27 24.0492 134.338 24.2973 134.474 24.517C134.611 24.7367 134.804 24.911 135.054 25.0398C135.304 25.1648 135.598 25.2273 135.935 25.2273C136.344 25.2273 136.747 25.1345 137.145 24.9489C137.546 24.7595 137.91 24.4924 138.236 24.1477C138.565 23.7992 138.829 23.3864 139.026 22.9091C139.223 22.4318 139.321 21.9034 139.321 21.3239H141.327C141.327 22.036 141.249 22.678 141.094 23.25C140.938 23.8182 140.723 24.3144 140.446 24.7386C140.17 25.1591 139.853 25.5038 139.497 25.7727C139.384 25.8447 139.274 25.9129 139.168 25.9773C139.062 26.0417 138.952 26.1098 138.838 26.1818C138.406 26.5303 137.923 26.7822 137.389 26.9375C136.859 27.0928 136.334 27.1705 135.815 27.1705ZM153.089 18.7102C153.044 18.2519 152.849 17.8958 152.504 17.642C152.16 17.3883 151.692 17.2614 151.101 17.2614C150.699 17.2614 150.36 17.3182 150.084 17.4318C149.807 17.5417 149.595 17.6951 149.447 17.892C149.304 18.089 149.232 18.3125 149.232 18.5625C149.224 18.7708 149.268 18.9527 149.362 19.108C149.461 19.2633 149.595 19.3977 149.766 19.5114C149.936 19.6212 150.133 19.7178 150.357 19.8011C150.58 19.8807 150.819 19.9489 151.072 20.0057L152.118 20.2557C152.625 20.3693 153.091 20.5208 153.516 20.7102C153.94 20.8996 154.307 21.1326 154.618 21.4091C154.929 21.6856 155.169 22.0114 155.339 22.3864C155.514 22.7614 155.603 23.1913 155.607 23.6761C155.603 24.3883 155.421 25.0057 155.061 25.5284C154.705 26.0473 154.19 26.4508 153.516 26.7386C152.845 27.0227 152.036 27.1648 151.089 27.1648C150.15 27.1648 149.332 27.0208 148.635 26.733C147.942 26.4451 147.4 26.0189 147.01 25.4545C146.624 24.8864 146.421 24.1837 146.402 23.3466H148.783C148.809 23.7367 148.921 24.0625 149.118 24.3239C149.319 24.5814 149.586 24.7765 149.919 24.9091C150.256 25.0379 150.637 25.1023 151.061 25.1023C151.478 25.1023 151.839 25.0417 152.146 24.9205C152.457 24.7992 152.697 24.6307 152.868 24.4148C153.038 24.1989 153.124 23.9508 153.124 23.6705C153.124 23.4091 153.046 23.1894 152.891 23.0114C152.739 22.8333 152.516 22.6818 152.22 22.5568C151.929 22.4318 151.571 22.3182 151.146 22.2159L149.879 21.8977C148.898 21.6591 148.124 21.286 147.555 20.7784C146.987 20.2708 146.705 19.5871 146.709 18.7273C146.705 18.0227 146.893 17.4072 147.271 16.8807C147.654 16.3542 148.179 15.9432 148.845 15.6477C149.512 15.3523 150.269 15.2045 151.118 15.2045C151.982 15.2045 152.735 15.3523 153.379 15.6477C154.027 15.9432 154.531 16.3542 154.891 16.8807C155.25 17.4072 155.436 18.017 155.447 18.7102H153.089ZM157.216 27V18.2727H159.636V27H157.216ZM158.432 17.1477C158.072 17.1477 157.763 17.0284 157.506 16.7898C157.252 16.5473 157.125 16.2576 157.125 15.9205C157.125 15.5871 157.252 15.3011 157.506 15.0625C157.763 14.8201 158.072 14.6989 158.432 14.6989C158.792 14.6989 159.098 14.8201 159.352 15.0625C159.61 15.3011 159.739 15.5871 159.739 15.9205C159.739 16.2576 159.61 16.5473 159.352 16.7898C159.098 17.0284 158.792 17.1477 158.432 17.1477ZM164.791 27.142C164.128 27.142 163.528 26.9716 162.99 26.6307C162.456 26.286 162.032 25.7803 161.717 25.1136C161.407 24.4432 161.251 23.6212 161.251 22.6477C161.251 21.6477 161.412 20.8163 161.734 20.1534C162.056 19.4867 162.484 18.9886 163.018 18.6591C163.556 18.3258 164.145 18.1591 164.786 18.1591C165.274 18.1591 165.681 18.2424 166.007 18.4091C166.337 18.572 166.602 18.7765 166.803 19.0227C167.007 19.2652 167.162 19.5038 167.268 19.7386H167.342V15.3636H169.757V27H167.371V25.6023H167.268C167.155 25.8447 166.994 26.0852 166.786 26.3239C166.581 26.5587 166.314 26.7538 165.984 26.9091C165.659 27.0644 165.261 27.142 164.791 27.142ZM165.558 25.2159C165.948 25.2159 166.278 25.1098 166.547 24.8977C166.82 24.6818 167.028 24.3807 167.172 23.9943C167.32 23.608 167.393 23.1553 167.393 22.6364C167.393 22.1174 167.321 21.6667 167.178 21.2841C167.034 20.9015 166.825 20.6061 166.553 20.3977C166.28 20.1894 165.948 20.0852 165.558 20.0852C165.161 20.0852 164.825 20.1932 164.553 20.4091C164.28 20.625 164.073 20.9242 163.933 21.3068C163.793 21.6894 163.723 22.1326 163.723 22.6364C163.723 23.1439 163.793 23.5928 163.933 23.983C164.077 24.3693 164.284 24.6723 164.553 24.892C164.825 25.108 165.161 25.2159 165.558 25.2159ZM175.724 27.1705C174.827 27.1705 174.054 26.9886 173.406 26.625C172.762 26.2576 172.266 25.7386 171.918 25.0682C171.569 24.3939 171.395 23.5966 171.395 22.6761C171.395 21.7784 171.569 20.9905 171.918 20.3125C172.266 19.6345 172.757 19.1061 173.389 18.7273C174.026 18.3485 174.772 18.1591 175.628 18.1591C176.204 18.1591 176.74 18.2519 177.236 18.4375C177.736 18.6193 178.171 18.8939 178.543 19.2614C178.918 19.6288 179.209 20.0909 179.418 20.6477C179.626 21.2008 179.73 21.8485 179.73 22.5909V23.2557H172.361V21.7557H177.452C177.452 21.4072 177.376 21.0985 177.224 20.8295C177.073 20.5606 176.863 20.3504 176.594 20.1989C176.329 20.0436 176.02 19.9659 175.668 19.9659C175.3 19.9659 174.974 20.0511 174.69 20.2216C174.41 20.3883 174.19 20.6136 174.031 20.8977C173.872 21.178 173.791 21.4905 173.787 21.8352V23.2614C173.787 23.6932 173.866 24.0663 174.026 24.3807C174.188 24.6951 174.418 24.9375 174.713 25.108C175.009 25.2784 175.359 25.3636 175.764 25.3636C176.033 25.3636 176.279 25.3258 176.503 25.25C176.726 25.1742 176.918 25.0606 177.077 24.9091C177.236 24.7576 177.357 24.572 177.44 24.3523L179.679 24.5C179.565 25.0379 179.332 25.5076 178.98 25.9091C178.632 26.3068 178.181 26.6174 177.628 26.8409C177.079 27.0606 176.444 27.1705 175.724 27.1705ZM184.615 17.392V15.3636H194.172V17.392H190.609V27H188.178V17.392H184.615ZM200.109 23.2841V18.2727H202.53V27H200.206V25.4148H200.115C199.918 25.9261 199.59 26.3371 199.132 26.6477C198.678 26.9583 198.123 27.1136 197.467 27.1136C196.884 27.1136 196.371 26.9811 195.928 26.7159C195.484 26.4508 195.138 26.0739 194.888 25.5852C194.642 25.0966 194.517 24.5114 194.513 23.8295V18.2727H196.933V23.3977C196.937 23.9129 197.075 24.3201 197.348 24.6193C197.621 24.9186 197.986 25.0682 198.445 25.0682C198.736 25.0682 199.009 25.0019 199.263 24.8693C199.517 24.733 199.721 24.5322 199.876 24.267C200.036 24.0019 200.113 23.6742 200.109 23.2841ZM204.466 27V18.2727H206.812V19.7955H206.903C207.063 19.2538 207.33 18.8447 207.705 18.5682C208.08 18.2879 208.511 18.1477 209 18.1477C209.121 18.1477 209.252 18.1553 209.392 18.1705C209.532 18.1856 209.655 18.2064 209.761 18.233V20.3807C209.648 20.3466 209.491 20.3163 209.29 20.2898C209.089 20.2633 208.905 20.25 208.739 20.25C208.383 20.25 208.064 20.3277 207.784 20.483C207.508 20.6345 207.288 20.8466 207.125 21.1193C206.966 21.392 206.886 21.7064 206.886 22.0625V27H204.466ZM213.433 21.9545V27H211.013V18.2727H213.32V19.8125H213.422C213.615 19.3049 213.939 18.9034 214.393 18.608C214.848 18.3087 215.399 18.1591 216.047 18.1591C216.653 18.1591 217.181 18.2917 217.632 18.5568C218.083 18.822 218.433 19.2008 218.683 19.6932C218.933 20.1818 219.058 20.7652 219.058 21.4432V27H216.638V21.875C216.642 21.3409 216.505 20.9242 216.229 20.625C215.952 20.322 215.571 20.1705 215.087 20.1705C214.761 20.1705 214.473 20.2405 214.223 20.3807C213.977 20.5208 213.784 20.7254 213.643 20.9943C213.507 21.2595 213.437 21.5795 213.433 21.9545ZM228.227 20.7614L226.011 20.8977C225.973 20.7083 225.892 20.5379 225.767 20.3864C225.642 20.2311 225.477 20.108 225.273 20.017C225.072 19.9223 224.831 19.875 224.551 19.875C224.176 19.875 223.86 19.9545 223.602 20.1136C223.345 20.2689 223.216 20.4773 223.216 20.7386C223.216 20.947 223.299 21.1231 223.466 21.267C223.633 21.411 223.919 21.5265 224.324 21.6136L225.903 21.9318C226.752 22.1061 227.384 22.3864 227.801 22.7727C228.218 23.1591 228.426 23.6667 228.426 24.2955C228.426 24.8674 228.258 25.3693 227.92 25.8011C227.587 26.233 227.129 26.5701 226.545 26.8125C225.966 27.0511 225.297 27.1705 224.54 27.1705C223.384 27.1705 222.464 26.9299 221.778 26.4489C221.097 25.964 220.697 25.3049 220.58 24.4716L222.96 24.3466C223.032 24.6989 223.206 24.9678 223.483 25.1534C223.759 25.3352 224.114 25.4261 224.545 25.4261C224.97 25.4261 225.311 25.3447 225.568 25.1818C225.83 25.0152 225.962 24.8011 225.966 24.5398C225.962 24.3201 225.869 24.1402 225.688 24C225.506 23.8561 225.225 23.7462 224.847 23.6705L223.335 23.3693C222.483 23.1989 221.848 22.9034 221.432 22.483C221.019 22.0625 220.812 21.5265 220.812 20.875C220.812 20.3144 220.964 19.8314 221.267 19.4261C221.574 19.0208 222.004 18.7083 222.557 18.4886C223.114 18.2689 223.765 18.1591 224.511 18.1591C225.614 18.1591 226.481 18.392 227.114 18.858C227.75 19.3239 228.121 19.9583 228.227 20.7614Z" fill="#29424D"/>
<path d="M169.109 56.625V60.5625C169.109 62.2708 168.927 63.7448 168.562 64.9844C168.198 66.2135 167.672 67.224 166.984 68.0156C166.307 68.7969 165.5 69.375 164.562 69.75C163.625 70.125 162.583 70.3125 161.438 70.3125C160.521 70.3125 159.667 70.1979 158.875 69.9688C158.083 69.7292 157.37 69.3594 156.734 68.8594C156.109 68.3594 155.568 67.7292 155.109 66.9688C154.661 66.1979 154.318 65.2812 154.078 64.2188C153.839 63.1562 153.719 61.9375 153.719 60.5625V56.625C153.719 54.9167 153.901 53.4531 154.266 52.2344C154.641 51.0052 155.167 50 155.844 49.2188C156.531 48.4375 157.344 47.8646 158.281 47.5C159.219 47.125 160.26 46.9375 161.406 46.9375C162.323 46.9375 163.172 47.0573 163.953 47.2969C164.745 47.526 165.458 47.8854 166.094 48.375C166.729 48.8646 167.271 49.4948 167.719 50.2656C168.167 51.026 168.51 51.9375 168.75 53C168.99 54.0521 169.109 55.2604 169.109 56.625ZM164.594 61.1562V56.0156C164.594 55.1927 164.547 54.474 164.453 53.8594C164.37 53.2448 164.24 52.724 164.062 52.2969C163.885 51.8594 163.667 51.5052 163.406 51.2344C163.146 50.9635 162.849 50.7656 162.516 50.6406C162.182 50.5156 161.812 50.4531 161.406 50.4531C160.896 50.4531 160.443 50.5521 160.047 50.75C159.661 50.9479 159.333 51.2656 159.062 51.7031C158.792 52.1302 158.583 52.7031 158.438 53.4219C158.302 54.1302 158.234 54.9948 158.234 56.0156V61.1562C158.234 61.9792 158.276 62.7031 158.359 63.3281C158.453 63.9531 158.589 64.4896 158.766 64.9375C158.953 65.375 159.172 65.7344 159.422 66.0156C159.682 66.2865 159.979 66.4844 160.312 66.6094C160.656 66.7344 161.031 66.7969 161.438 66.7969C161.938 66.7969 162.38 66.6979 162.766 66.5C163.161 66.2917 163.495 65.9688 163.766 65.5312C164.047 65.0833 164.255 64.5 164.391 63.7812C164.526 63.0625 164.594 62.1875 164.594 61.1562ZM187.484 56.625V60.5625C187.484 62.2708 187.302 63.7448 186.938 64.9844C186.573 66.2135 186.047 67.224 185.359 68.0156C184.682 68.7969 183.875 69.375 182.938 69.75C182 70.125 180.958 70.3125 179.812 70.3125C178.896 70.3125 178.042 70.1979 177.25 69.9688C176.458 69.7292 175.745 69.3594 175.109 68.8594C174.484 68.3594 173.943 67.7292 173.484 66.9688C173.036 66.1979 172.693 65.2812 172.453 64.2188C172.214 63.1562 172.094 61.9375 172.094 60.5625V56.625C172.094 54.9167 172.276 53.4531 172.641 52.2344C173.016 51.0052 173.542 50 174.219 49.2188C174.906 48.4375 175.719 47.8646 176.656 47.5C177.594 47.125 178.635 46.9375 179.781 46.9375C180.698 46.9375 181.547 47.0573 182.328 47.2969C183.12 47.526 183.833 47.8854 184.469 48.375C185.104 48.8646 185.646 49.4948 186.094 50.2656C186.542 51.026 186.885 51.9375 187.125 53C187.365 54.0521 187.484 55.2604 187.484 56.625ZM182.969 61.1562V56.0156C182.969 55.1927 182.922 54.474 182.828 53.8594C182.745 53.2448 182.615 52.724 182.438 52.2969C182.26 51.8594 182.042 51.5052 181.781 51.2344C181.521 50.9635 181.224 50.7656 180.891 50.6406C180.557 50.5156 180.188 50.4531 179.781 50.4531C179.271 50.4531 178.818 50.5521 178.422 50.75C178.036 50.9479 177.708 51.2656 177.438 51.7031C177.167 52.1302 176.958 52.7031 176.812 53.4219C176.677 54.1302 176.609 54.9948 176.609 56.0156V61.1562C176.609 61.9792 176.651 62.7031 176.734 63.3281C176.828 63.9531 176.964 64.4896 177.141 64.9375C177.328 65.375 177.547 65.7344 177.797 66.0156C178.057 66.2865 178.354 66.4844 178.688 66.6094C179.031 66.7344 179.406 66.7969 179.812 66.7969C180.312 66.7969 180.755 66.6979 181.141 66.5C181.536 66.2917 181.87 65.9688 182.141 65.5312C182.422 65.0833 182.63 64.5 182.766 63.7812C182.901 63.0625 182.969 62.1875 182.969 61.1562ZM190.906 67.8281C190.906 67.1615 191.135 66.6042 191.594 66.1562C192.062 65.7083 192.682 65.4844 193.453 65.4844C194.224 65.4844 194.839 65.7083 195.297 66.1562C195.766 66.6042 196 67.1615 196 67.8281C196 68.4948 195.766 69.0521 195.297 69.5C194.839 69.9479 194.224 70.1719 193.453 70.1719C192.682 70.1719 192.062 69.9479 191.594 69.5C191.135 69.0521 190.906 68.4948 190.906 67.8281ZM190.906 54.9375C190.906 54.2708 191.135 53.7135 191.594 53.2656C192.062 52.8177 192.682 52.5938 193.453 52.5938C194.224 52.5938 194.839 52.8177 195.297 53.2656C195.766 53.7135 196 54.2708 196 54.9375C196 55.6042 195.766 56.1615 195.297 56.6094C194.839 57.0573 194.224 57.2812 193.453 57.2812C192.682 57.2812 192.062 57.0573 191.594 56.6094C191.135 56.1615 190.906 55.6042 190.906 54.9375ZM210.547 47.2031V70H206.047V52.3906L200.641 54.1094V50.5625L210.062 47.2031H210.547ZM233.891 61.5V65.0312H217.5L217.281 62.2969L226.766 47.25H230.344L226.469 53.7344L221.75 61.5H233.891ZM231.312 47.25V70H226.812V47.25H231.312Z" fill="#29424D"/>
<path d="M347.109 17.5469L348.961 20.625L350.836 17.5469H352.531L349.766 21.7188L352.617 26H350.945L348.992 22.8281L347.039 26H345.359L348.203 21.7188L345.445 17.5469H347.109ZM361.602 22.1719V23.3594H353.383V22.5078L358.477 14.625H359.656L358.391 16.9062L355.023 22.1719H361.602ZM360.016 14.625V26H358.57V14.625H360.016Z" fill="#29424D"/>
</svg>
