<svg width="386" height="166" viewBox="0 0 386 166" fill="none" xmlns="http://www.w3.org/2000/svg">
<rect width="386" height="166" rx="20" fill="#FFFEFE" fill-opacity="0.7"/>
<path d="M30.2784 19.4375H27.7898C27.7443 19.1155 27.6515 18.8295 27.5114 18.5795C27.3712 18.3258 27.1913 18.1098 26.9716 17.9318C26.7519 17.7538 26.4981 17.6174 26.2102 17.5227C25.9261 17.428 25.6174 17.3807 25.2841 17.3807C24.6818 17.3807 24.1572 17.5303 23.7102 17.8295C23.2633 18.125 22.9167 18.5568 22.6705 19.125C22.4242 19.6894 22.3011 20.375 22.3011 21.1818C22.3011 22.0114 22.4242 22.7083 22.6705 23.2727C22.9205 23.8371 23.2689 24.2633 23.7159 24.5511C24.1629 24.839 24.6799 24.983 25.267 24.983C25.5966 24.983 25.9015 24.9394 26.1818 24.8523C26.4659 24.7652 26.7178 24.6383 26.9375 24.4716C27.1572 24.3011 27.339 24.0947 27.483 23.8523C27.6307 23.6098 27.733 23.3333 27.7898 23.0227L30.2784 23.0341C30.214 23.5682 30.053 24.0833 29.7955 24.5795C29.5417 25.072 29.1989 25.5133 28.767 25.9034C28.339 26.2898 27.8277 26.5966 27.233 26.8239C26.642 27.0473 25.9735 27.1591 25.2273 27.1591C24.1894 27.1591 23.2614 26.9242 22.4432 26.4545C21.6288 25.9848 20.9848 25.3049 20.5114 24.4148C20.0417 23.5246 19.8068 22.447 19.8068 21.1818C19.8068 19.9129 20.0455 18.8333 20.5227 17.9432C21 17.053 21.6477 16.375 22.4659 15.9091C23.2841 15.4394 24.2045 15.2045 25.2273 15.2045C25.9015 15.2045 26.5265 15.2992 27.1023 15.4886C27.6818 15.678 28.1951 15.9545 28.642 16.3182C29.089 16.678 29.4527 17.1193 29.733 17.642C30.017 18.1648 30.1989 18.7633 30.2784 19.4375ZM34.4858 27.1648C33.929 27.1648 33.4328 27.0682 32.9972 26.875C32.5616 26.678 32.2169 26.3883 31.9631 26.0057C31.7131 25.6193 31.5881 25.1383 31.5881 24.5625C31.5881 24.0777 31.6771 23.6705 31.8551 23.3409C32.0331 23.0114 32.2756 22.7462 32.5824 22.5455C32.8892 22.3447 33.2377 22.1932 33.6278 22.0909C34.0218 21.9886 34.4347 21.9167 34.8665 21.875C35.3741 21.822 35.7831 21.7727 36.0938 21.7273C36.4044 21.678 36.6297 21.6061 36.7699 21.5114C36.91 21.4167 36.9801 21.2765 36.9801 21.0909V21.0568C36.9801 20.697 36.8665 20.4186 36.6392 20.2216C36.4157 20.0246 36.0975 19.9261 35.6847 19.9261C35.2491 19.9261 34.9025 20.0227 34.6449 20.2159C34.3873 20.4053 34.2169 20.6439 34.1335 20.9318L31.8949 20.75C32.0085 20.2197 32.232 19.7614 32.5653 19.375C32.8987 18.9848 33.3286 18.6856 33.8551 18.4773C34.3854 18.2652 34.9991 18.1591 35.696 18.1591C36.1809 18.1591 36.6449 18.2159 37.0881 18.3295C37.535 18.4432 37.9309 18.6193 38.2756 18.858C38.6241 19.0966 38.8987 19.4034 39.0994 19.7784C39.3002 20.1496 39.4006 20.5947 39.4006 21.1136V27H37.1051V25.7898H37.0369C36.8968 26.0625 36.7093 26.303 36.4744 26.5114C36.2396 26.7159 35.9574 26.8769 35.6278 26.9943C35.2983 27.108 34.9176 27.1648 34.4858 27.1648ZM35.179 25.4943C35.535 25.4943 35.8494 25.4242 36.1222 25.2841C36.3949 25.1402 36.6089 24.947 36.7642 24.7045C36.9195 24.4621 36.9972 24.1875 36.9972 23.8807V22.9545C36.9214 23.0038 36.8172 23.0492 36.6847 23.0909C36.5559 23.1288 36.41 23.1648 36.2472 23.1989C36.0843 23.2292 35.9214 23.2576 35.7585 23.2841C35.5956 23.3068 35.4479 23.3277 35.3153 23.3466C35.0313 23.3883 34.7831 23.4545 34.571 23.5455C34.3589 23.6364 34.1941 23.7595 34.0767 23.9148C33.9593 24.0663 33.9006 24.2557 33.9006 24.483C33.9006 24.8125 34.0199 25.0644 34.2585 25.2386C34.5009 25.4091 34.8078 25.4943 35.179 25.4943ZM45.9205 18.2727V20.0909H40.6648V18.2727H45.9205ZM41.858 16.1818H44.2784V24.3182C44.2784 24.5417 44.3125 24.7159 44.3807 24.8409C44.4489 24.9621 44.5436 25.0473 44.6648 25.0966C44.7898 25.1458 44.9337 25.1705 45.0966 25.1705C45.2102 25.1705 45.3239 25.161 45.4375 25.142C45.5511 25.1193 45.6383 25.1023 45.6989 25.0909L46.0795 26.892C45.9583 26.9299 45.7879 26.9735 45.5682 27.0227C45.3485 27.0758 45.0814 27.108 44.767 27.1193C44.1837 27.142 43.6723 27.0644 43.233 26.8864C42.7973 26.7083 42.4583 26.4318 42.2159 26.0568C41.9735 25.6818 41.8542 25.2083 41.858 24.6364V16.1818ZM53.6889 27.1648C53.1321 27.1648 52.6359 27.0682 52.2003 26.875C51.7647 26.678 51.42 26.3883 51.1662 26.0057C50.9162 25.6193 50.7912 25.1383 50.7912 24.5625C50.7912 24.0777 50.8802 23.6705 51.0582 23.3409C51.2363 23.0114 51.4787 22.7462 51.7855 22.5455C52.0923 22.3447 52.4408 22.1932 52.831 22.0909C53.2249 21.9886 53.6378 21.9167 54.0696 21.875C54.5772 21.822 54.9863 21.7727 55.2969 21.7273C55.6075 21.678 55.8329 21.6061 55.973 21.5114C56.1132 21.4167 56.1832 21.2765 56.1832 21.0909V21.0568C56.1832 20.697 56.0696 20.4186 55.8423 20.2216C55.6188 20.0246 55.3007 19.9261 54.8878 19.9261C54.4522 19.9261 54.1056 20.0227 53.848 20.2159C53.5904 20.4053 53.42 20.6439 53.3366 20.9318L51.098 20.75C51.2116 20.2197 51.4351 19.7614 51.7685 19.375C52.1018 18.9848 52.5317 18.6856 53.0582 18.4773C53.5885 18.2652 54.2022 18.1591 54.8991 18.1591C55.384 18.1591 55.848 18.2159 56.2912 18.3295C56.7382 18.4432 57.134 18.6193 57.4787 18.858C57.8272 19.0966 58.1018 19.4034 58.3026 19.7784C58.5033 20.1496 58.6037 20.5947 58.6037 21.1136V27H56.3082V25.7898H56.2401C56.0999 26.0625 55.9124 26.303 55.6776 26.5114C55.4427 26.7159 55.1605 26.8769 54.831 26.9943C54.5014 27.108 54.1207 27.1648 53.6889 27.1648ZM54.3821 25.4943C54.7382 25.4943 55.0526 25.4242 55.3253 25.2841C55.598 25.1402 55.812 24.947 55.9673 24.7045C56.1226 24.4621 56.2003 24.1875 56.2003 23.8807V22.9545C56.1245 23.0038 56.0204 23.0492 55.8878 23.0909C55.759 23.1288 55.6132 23.1648 55.4503 23.1989C55.2874 23.2292 55.1245 23.2576 54.9616 23.2841C54.7988 23.3068 54.651 23.3277 54.5185 23.3466C54.2344 23.3883 53.9863 23.4545 53.7741 23.5455C53.562 23.6364 53.3973 23.7595 53.2798 23.9148C53.1624 24.0663 53.1037 24.2557 53.1037 24.483C53.1037 24.8125 53.223 25.0644 53.4616 25.2386C53.7041 25.4091 54.0109 25.4943 54.3821 25.4943ZM62.902 21.9545V27H60.4815V18.2727H62.7884V19.8125H62.8906C63.0838 19.3049 63.4077 18.9034 63.8622 18.608C64.3168 18.3087 64.8679 18.1591 65.5156 18.1591C66.1217 18.1591 66.6501 18.2917 67.1009 18.5568C67.5516 18.822 67.902 19.2008 68.152 19.6932C68.402 20.1818 68.527 20.7652 68.527 21.4432V27H66.1065V21.875C66.1103 21.3409 65.974 20.9242 65.6974 20.625C65.4209 20.322 65.0402 20.1705 64.5554 20.1705C64.2296 20.1705 63.9418 20.2405 63.6918 20.3807C63.4455 20.5208 63.2524 20.7254 63.1122 20.9943C62.9759 21.2595 62.9058 21.5795 62.902 21.9545ZM73.6506 27.142C72.9877 27.142 72.3873 26.9716 71.8494 26.6307C71.3153 26.286 70.8911 25.7803 70.5767 25.1136C70.2661 24.4432 70.1108 23.6212 70.1108 22.6477C70.1108 21.6477 70.2718 20.8163 70.5938 20.1534C70.9157 19.4867 71.3438 18.9886 71.8778 18.6591C72.4157 18.3258 73.0047 18.1591 73.6449 18.1591C74.1335 18.1591 74.5407 18.2424 74.8665 18.4091C75.196 18.572 75.4612 18.7765 75.6619 19.0227C75.8665 19.2652 76.0218 19.5038 76.1278 19.7386H76.2017V15.3636H78.6165V27H76.2301V25.6023H76.1278C76.0142 25.8447 75.8532 26.0852 75.6449 26.3239C75.4403 26.5587 75.1733 26.7538 74.8438 26.9091C74.518 27.0644 74.1203 27.142 73.6506 27.142ZM74.4176 25.2159C74.8078 25.2159 75.1373 25.1098 75.4062 24.8977C75.679 24.6818 75.8873 24.3807 76.0312 23.9943C76.179 23.608 76.2528 23.1553 76.2528 22.6364C76.2528 22.1174 76.1809 21.6667 76.0369 21.2841C75.893 20.9015 75.6847 20.6061 75.4119 20.3977C75.1392 20.1894 74.8078 20.0852 74.4176 20.0852C74.0199 20.0852 73.6847 20.1932 73.4119 20.4091C73.1392 20.625 72.9328 20.9242 72.7926 21.3068C72.6525 21.6894 72.5824 22.1326 72.5824 22.6364C72.5824 23.1439 72.6525 23.5928 72.7926 23.983C72.9366 24.3693 73.143 24.6723 73.4119 24.892C73.6847 25.108 74.0199 25.2159 74.4176 25.2159ZM94.6222 19.4375H92.1335C92.0881 19.1155 91.9953 18.8295 91.8551 18.5795C91.715 18.3258 91.535 18.1098 91.3153 17.9318C91.0956 17.7538 90.8419 17.6174 90.554 17.5227C90.2699 17.428 89.9612 17.3807 89.6278 17.3807C89.0256 17.3807 88.5009 17.5303 88.054 17.8295C87.607 18.125 87.2604 18.5568 87.0142 19.125C86.768 19.6894 86.6449 20.375 86.6449 21.1818C86.6449 22.0114 86.768 22.7083 87.0142 23.2727C87.2642 23.8371 87.6127 24.2633 88.0597 24.5511C88.5066 24.839 89.0237 24.983 89.6108 24.983C89.9403 24.983 90.2453 24.9394 90.5256 24.8523C90.8097 24.7652 91.0616 24.6383 91.2812 24.4716C91.5009 24.3011 91.6828 24.0947 91.8267 23.8523C91.9744 23.6098 92.0767 23.3333 92.1335 23.0227L94.6222 23.0341C94.5578 23.5682 94.3968 24.0833 94.1392 24.5795C93.8854 25.072 93.5426 25.5133 93.1108 25.9034C92.6828 26.2898 92.1714 26.5966 91.5767 26.8239C90.9858 27.0473 90.3172 27.1591 89.571 27.1591C88.5331 27.1591 87.6051 26.9242 86.7869 26.4545C85.9725 25.9848 85.3286 25.3049 84.8551 24.4148C84.3854 23.5246 84.1506 22.447 84.1506 21.1818C84.1506 19.9129 84.3892 18.8333 84.8665 17.9432C85.3438 17.053 85.9915 16.375 86.8097 15.9091C87.6278 15.4394 88.5483 15.2045 89.571 15.2045C90.2453 15.2045 90.8703 15.2992 91.446 15.4886C92.0256 15.678 92.5388 15.9545 92.9858 16.3182C93.4328 16.678 93.7964 17.1193 94.0767 17.642C94.3608 18.1648 94.5426 18.7633 94.6222 19.4375ZM100.284 27.1705C99.4015 27.1705 98.6383 26.983 97.9943 26.608C97.3542 26.2292 96.8598 25.7027 96.5114 25.0284C96.1629 24.3504 95.9886 23.5644 95.9886 22.6705C95.9886 21.7689 96.1629 20.9811 96.5114 20.3068C96.8598 19.6288 97.3542 19.1023 97.9943 18.7273C98.6383 18.3485 99.4015 18.1591 100.284 18.1591C101.167 18.1591 101.928 18.3485 102.568 18.7273C103.212 19.1023 103.708 19.6288 104.057 20.3068C104.405 20.9811 104.58 21.7689 104.58 22.6705C104.58 23.5644 104.405 24.3504 104.057 25.0284C103.708 25.7027 103.212 26.2292 102.568 26.608C101.928 26.983 101.167 27.1705 100.284 27.1705ZM100.295 25.2955C100.697 25.2955 101.032 25.1818 101.301 24.9545C101.57 24.7235 101.773 24.4091 101.909 24.0114C102.049 23.6136 102.119 23.161 102.119 22.6534C102.119 22.1458 102.049 21.6932 101.909 21.2955C101.773 20.8977 101.57 20.5833 101.301 20.3523C101.032 20.1212 100.697 20.0057 100.295 20.0057C99.8902 20.0057 99.5492 20.1212 99.2727 20.3523C99 20.5833 98.7936 20.8977 98.6534 21.2955C98.517 21.6932 98.4489 22.1458 98.4489 22.6534C98.4489 23.161 98.517 23.6136 98.6534 24.0114C98.7936 24.4091 99 24.7235 99.2727 24.9545C99.5492 25.1818 99.8902 25.2955 100.295 25.2955ZM107.656 27L105.281 18.2727H107.73L109.082 24.1364H109.162L110.571 18.2727H112.974L114.406 24.1023H114.48L115.81 18.2727H118.253L115.884 27H113.321L111.821 21.5114H111.713L110.213 27H107.656ZM129.605 18.7102C129.56 18.2519 129.365 17.8958 129.02 17.642C128.675 17.3883 128.207 17.2614 127.616 17.2614C127.215 17.2614 126.876 17.3182 126.599 17.4318C126.323 17.5417 126.111 17.6951 125.963 17.892C125.819 18.089 125.747 18.3125 125.747 18.5625C125.74 18.7708 125.783 18.9527 125.878 19.108C125.976 19.2633 126.111 19.3977 126.281 19.5114C126.452 19.6212 126.649 19.7178 126.872 19.8011C127.096 19.8807 127.334 19.9489 127.588 20.0057L128.634 20.2557C129.141 20.3693 129.607 20.5208 130.031 20.7102C130.455 20.8996 130.823 21.1326 131.134 21.4091C131.444 21.6856 131.685 22.0114 131.855 22.3864C132.029 22.7614 132.118 23.1913 132.122 23.6761C132.118 24.3883 131.937 25.0057 131.577 25.5284C131.221 26.0473 130.705 26.4508 130.031 26.7386C129.361 27.0227 128.552 27.1648 127.605 27.1648C126.666 27.1648 125.848 27.0208 125.151 26.733C124.457 26.4451 123.916 26.0189 123.526 25.4545C123.139 24.8864 122.937 24.1837 122.918 23.3466H125.298C125.325 23.7367 125.437 24.0625 125.634 24.3239C125.834 24.5814 126.101 24.7765 126.435 24.9091C126.772 25.0379 127.152 25.1023 127.577 25.1023C127.993 25.1023 128.355 25.0417 128.662 24.9205C128.973 24.7992 129.213 24.6307 129.384 24.4148C129.554 24.1989 129.639 23.9508 129.639 23.6705C129.639 23.4091 129.562 23.1894 129.406 23.0114C129.255 22.8333 129.031 22.6818 128.736 22.5568C128.444 22.4318 128.086 22.3182 127.662 22.2159L126.395 21.8977C125.414 21.6591 124.639 21.286 124.071 20.7784C123.503 20.2708 123.221 19.5871 123.224 18.7273C123.221 18.0227 123.408 17.4072 123.787 16.8807C124.17 16.3542 124.694 15.9432 125.361 15.6477C126.027 15.3523 126.785 15.2045 127.634 15.2045C128.497 15.2045 129.251 15.3523 129.895 15.6477C130.543 15.9432 131.046 16.3542 131.406 16.8807C131.766 17.4072 131.952 18.017 131.963 18.7102H129.605ZM138.374 18.2727V20.0909H133.118V18.2727H138.374ZM134.311 16.1818H136.732V24.3182C136.732 24.5417 136.766 24.7159 136.834 24.8409C136.902 24.9621 136.997 25.0473 137.118 25.0966C137.243 25.1458 137.387 25.1705 137.55 25.1705C137.663 25.1705 137.777 25.161 137.891 25.142C138.004 25.1193 138.091 25.1023 138.152 25.0909L138.533 26.892C138.411 26.9299 138.241 26.9735 138.021 27.0227C137.802 27.0758 137.535 27.108 137.22 27.1193C136.637 27.142 136.125 27.0644 135.686 26.8864C135.25 26.7083 134.911 26.4318 134.669 26.0568C134.427 25.6818 134.307 25.2083 134.311 24.6364V16.1818ZM139.95 27V18.2727H142.297V19.7955H142.388C142.547 19.2538 142.814 18.8447 143.189 18.5682C143.564 18.2879 143.996 18.1477 144.484 18.1477C144.606 18.1477 144.736 18.1553 144.876 18.1705C145.017 18.1856 145.14 18.2064 145.246 18.233V20.3807C145.132 20.3466 144.975 20.3163 144.774 20.2898C144.573 20.2633 144.39 20.25 144.223 20.25C143.867 20.25 143.549 20.3277 143.268 20.483C142.992 20.6345 142.772 20.8466 142.609 21.1193C142.45 21.392 142.371 21.7064 142.371 22.0625V27H139.95ZM150.068 27.1705C149.17 27.1705 148.398 26.9886 147.75 26.625C147.106 26.2576 146.61 25.7386 146.261 25.0682C145.913 24.3939 145.739 23.5966 145.739 22.6761C145.739 21.7784 145.913 20.9905 146.261 20.3125C146.61 19.6345 147.1 19.1061 147.733 18.7273C148.369 18.3485 149.116 18.1591 149.972 18.1591C150.547 18.1591 151.083 18.2519 151.58 18.4375C152.08 18.6193 152.515 18.8939 152.886 19.2614C153.261 19.6288 153.553 20.0909 153.761 20.6477C153.97 21.2008 154.074 21.8485 154.074 22.5909V23.2557H146.705V21.7557H151.795C151.795 21.4072 151.72 21.0985 151.568 20.8295C151.417 20.5606 151.206 20.3504 150.938 20.1989C150.672 20.0436 150.364 19.9659 150.011 19.9659C149.644 19.9659 149.318 20.0511 149.034 20.2216C148.754 20.3883 148.534 20.6136 148.375 20.8977C148.216 21.178 148.134 21.4905 148.131 21.8352V23.2614C148.131 23.6932 148.21 24.0663 148.369 24.3807C148.532 24.6951 148.761 24.9375 149.057 25.108C149.352 25.2784 149.703 25.3636 150.108 25.3636C150.377 25.3636 150.623 25.3258 150.847 25.25C151.07 25.1742 151.261 25.0606 151.42 24.9091C151.58 24.7576 151.701 24.572 151.784 24.3523L154.023 24.5C153.909 25.0379 153.676 25.5076 153.324 25.9091C152.975 26.3068 152.525 26.6174 151.972 26.8409C151.422 27.0606 150.788 27.1705 150.068 27.1705ZM160.295 18.2727V20.0909H155.04V18.2727H160.295ZM156.233 16.1818H158.653V24.3182C158.653 24.5417 158.688 24.7159 158.756 24.8409C158.824 24.9621 158.919 25.0473 159.04 25.0966C159.165 25.1458 159.309 25.1705 159.472 25.1705C159.585 25.1705 159.699 25.161 159.812 25.142C159.926 25.1193 160.013 25.1023 160.074 25.0909L160.455 26.892C160.333 26.9299 160.163 26.9735 159.943 27.0227C159.723 27.0758 159.456 27.108 159.142 27.1193C158.559 27.142 158.047 27.0644 157.608 26.8864C157.172 26.7083 156.833 26.4318 156.591 26.0568C156.348 25.6818 156.229 25.2083 156.233 24.6364V16.1818ZM165.722 27.1705C164.828 27.1705 164.059 26.9811 163.415 26.6023C162.775 26.2197 162.282 25.6894 161.938 25.0114C161.597 24.3333 161.426 23.553 161.426 22.6705C161.426 21.7765 161.598 20.9924 161.943 20.3182C162.292 19.6402 162.786 19.1117 163.426 18.733C164.066 18.3504 164.828 18.1591 165.71 18.1591C166.472 18.1591 167.138 18.2973 167.71 18.5739C168.282 18.8504 168.735 19.2386 169.068 19.7386C169.402 20.2386 169.585 20.8258 169.619 21.5H167.335C167.271 21.0644 167.1 20.714 166.824 20.4489C166.551 20.1799 166.193 20.0455 165.75 20.0455C165.375 20.0455 165.047 20.1477 164.767 20.3523C164.491 20.553 164.275 20.8466 164.119 21.233C163.964 21.6193 163.886 22.0871 163.886 22.6364C163.886 23.1932 163.962 23.6667 164.114 24.0568C164.269 24.447 164.487 24.7443 164.767 24.9489C165.047 25.1534 165.375 25.2557 165.75 25.2557C166.027 25.2557 166.275 25.1989 166.494 25.0852C166.718 24.9716 166.902 24.8068 167.045 24.5909C167.193 24.3712 167.29 24.108 167.335 23.8011H169.619C169.581 24.4678 169.4 25.0549 169.074 25.5625C168.752 26.0663 168.307 26.4602 167.739 26.7443C167.17 27.0284 166.498 27.1705 165.722 27.1705ZM173.589 21.9545V27H171.169V15.3636H173.521V19.8125H173.624C173.821 19.2973 174.139 18.8939 174.578 18.6023C175.018 18.3068 175.569 18.1591 176.232 18.1591C176.838 18.1591 177.366 18.2917 177.817 18.5568C178.271 18.8182 178.624 19.1951 178.874 19.6875C179.127 20.1761 179.252 20.7614 179.249 21.4432V27H176.828V21.875C176.832 21.3371 176.696 20.9186 176.419 20.6193C176.146 20.3201 175.764 20.1705 175.271 20.1705C174.942 20.1705 174.65 20.2405 174.396 20.3807C174.146 20.5208 173.949 20.7254 173.805 20.9943C173.665 21.2595 173.593 21.5795 173.589 21.9545Z" fill="#29424D"/>
<path d="M169.109 56.625V60.5625C169.109 62.2708 168.927 63.7448 168.562 64.9844C168.198 66.2135 167.672 67.224 166.984 68.0156C166.307 68.7969 165.5 69.375 164.562 69.75C163.625 70.125 162.583 70.3125 161.438 70.3125C160.521 70.3125 159.667 70.1979 158.875 69.9688C158.083 69.7292 157.37 69.3594 156.734 68.8594C156.109 68.3594 155.568 67.7292 155.109 66.9688C154.661 66.1979 154.318 65.2812 154.078 64.2188C153.839 63.1562 153.719 61.9375 153.719 60.5625V56.625C153.719 54.9167 153.901 53.4531 154.266 52.2344C154.641 51.0052 155.167 50 155.844 49.2188C156.531 48.4375 157.344 47.8646 158.281 47.5C159.219 47.125 160.26 46.9375 161.406 46.9375C162.323 46.9375 163.172 47.0573 163.953 47.2969C164.745 47.526 165.458 47.8854 166.094 48.375C166.729 48.8646 167.271 49.4948 167.719 50.2656C168.167 51.026 168.51 51.9375 168.75 53C168.99 54.0521 169.109 55.2604 169.109 56.625ZM164.594 61.1562V56.0156C164.594 55.1927 164.547 54.474 164.453 53.8594C164.37 53.2448 164.24 52.724 164.062 52.2969C163.885 51.8594 163.667 51.5052 163.406 51.2344C163.146 50.9635 162.849 50.7656 162.516 50.6406C162.182 50.5156 161.812 50.4531 161.406 50.4531C160.896 50.4531 160.443 50.5521 160.047 50.75C159.661 50.9479 159.333 51.2656 159.062 51.7031C158.792 52.1302 158.583 52.7031 158.438 53.4219C158.302 54.1302 158.234 54.9948 158.234 56.0156V61.1562C158.234 61.9792 158.276 62.7031 158.359 63.3281C158.453 63.9531 158.589 64.4896 158.766 64.9375C158.953 65.375 159.172 65.7344 159.422 66.0156C159.682 66.2865 159.979 66.4844 160.312 66.6094C160.656 66.7344 161.031 66.7969 161.438 66.7969C161.938 66.7969 162.38 66.6979 162.766 66.5C163.161 66.2917 163.495 65.9688 163.766 65.5312C164.047 65.0833 164.255 64.5 164.391 63.7812C164.526 63.0625 164.594 62.1875 164.594 61.1562ZM187.484 56.625V60.5625C187.484 62.2708 187.302 63.7448 186.938 64.9844C186.573 66.2135 186.047 67.224 185.359 68.0156C184.682 68.7969 183.875 69.375 182.938 69.75C182 70.125 180.958 70.3125 179.812 70.3125C178.896 70.3125 178.042 70.1979 177.25 69.9688C176.458 69.7292 175.745 69.3594 175.109 68.8594C174.484 68.3594 173.943 67.7292 173.484 66.9688C173.036 66.1979 172.693 65.2812 172.453 64.2188C172.214 63.1562 172.094 61.9375 172.094 60.5625V56.625C172.094 54.9167 172.276 53.4531 172.641 52.2344C173.016 51.0052 173.542 50 174.219 49.2188C174.906 48.4375 175.719 47.8646 176.656 47.5C177.594 47.125 178.635 46.9375 179.781 46.9375C180.698 46.9375 181.547 47.0573 182.328 47.2969C183.12 47.526 183.833 47.8854 184.469 48.375C185.104 48.8646 185.646 49.4948 186.094 50.2656C186.542 51.026 186.885 51.9375 187.125 53C187.365 54.0521 187.484 55.2604 187.484 56.625ZM182.969 61.1562V56.0156C182.969 55.1927 182.922 54.474 182.828 53.8594C182.745 53.2448 182.615 52.724 182.438 52.2969C182.26 51.8594 182.042 51.5052 181.781 51.2344C181.521 50.9635 181.224 50.7656 180.891 50.6406C180.557 50.5156 180.188 50.4531 179.781 50.4531C179.271 50.4531 178.818 50.5521 178.422 50.75C178.036 50.9479 177.708 51.2656 177.438 51.7031C177.167 52.1302 176.958 52.7031 176.812 53.4219C176.677 54.1302 176.609 54.9948 176.609 56.0156V61.1562C176.609 61.9792 176.651 62.7031 176.734 63.3281C176.828 63.9531 176.964 64.4896 177.141 64.9375C177.328 65.375 177.547 65.7344 177.797 66.0156C178.057 66.2865 178.354 66.4844 178.688 66.6094C179.031 66.7344 179.406 66.7969 179.812 66.7969C180.312 66.7969 180.755 66.6979 181.141 66.5C181.536 66.2917 181.87 65.9688 182.141 65.5312C182.422 65.0833 182.63 64.5 182.766 63.7812C182.901 63.0625 182.969 62.1875 182.969 61.1562ZM190.906 67.8281C190.906 67.1615 191.135 66.6042 191.594 66.1562C192.062 65.7083 192.682 65.4844 193.453 65.4844C194.224 65.4844 194.839 65.7083 195.297 66.1562C195.766 66.6042 196 67.1615 196 67.8281C196 68.4948 195.766 69.0521 195.297 69.5C194.839 69.9479 194.224 70.1719 193.453 70.1719C192.682 70.1719 192.062 69.9479 191.594 69.5C191.135 69.0521 190.906 68.4948 190.906 67.8281ZM190.906 54.9375C190.906 54.2708 191.135 53.7135 191.594 53.2656C192.062 52.8177 192.682 52.5938 193.453 52.5938C194.224 52.5938 194.839 52.8177 195.297 53.2656C195.766 53.7135 196 54.2708 196 54.9375C196 55.6042 195.766 56.1615 195.297 56.6094C194.839 57.0573 194.224 57.2812 193.453 57.2812C192.682 57.2812 192.062 57.0573 191.594 56.6094C191.135 56.1615 190.906 55.6042 190.906 54.9375ZM210.547 47.2031V70H206.047V52.3906L200.641 54.1094V50.5625L210.062 47.2031H210.547ZM233.891 61.5V65.0312H217.5L217.281 62.2969L226.766 47.25H230.344L226.469 53.7344L221.75 61.5H233.891ZM231.312 47.25V70H226.812V47.25H231.312Z" fill="#29424D"/>
<path d="M347.109 17.5469L348.961 20.625L350.836 17.5469H352.531L349.766 21.7188L352.617 26H350.945L348.992 22.8281L347.039 26H345.359L348.203 21.7188L345.445 17.5469H347.109ZM361.602 22.1719V23.3594H353.383V22.5078L358.477 14.625H359.656L358.391 16.9062L355.023 22.1719H361.602ZM360.016 14.625V26H358.57V14.625H360.016Z" fill="#29424D"/>
</svg>
