<svg width="16" height="16" viewBox="0 0 16 16" fill="none" xmlns="http://www.w3.org/2000/svg">
<path d="M14.1668 7.99997H5.93016M3.02283 7.99997H1.8335M3.02283 7.99997C3.02283 7.61452 3.17595 7.24486 3.4485 6.97231C3.72105 6.69975 4.09071 6.54663 4.47616 6.54663C4.86161 6.54663 5.23127 6.69975 5.50382 6.97231C5.77638 7.24486 5.9295 7.61452 5.9295 7.99997C5.9295 8.38542 5.77638 8.75508 5.50382 9.02763C5.23127 9.30018 4.86161 9.4533 4.47616 9.4533C4.09071 9.4533 3.72105 9.30018 3.4485 9.02763C3.17595 8.75508 3.02283 8.38542 3.02283 7.99997ZM14.1668 12.4046H10.3348M10.3348 12.4046C10.3348 12.7902 10.1813 13.1603 9.90873 13.4329C9.63611 13.7055 9.26637 13.8586 8.88083 13.8586C8.49538 13.8586 8.12572 13.7048 7.85317 13.4323C7.58062 13.1597 7.4275 12.7901 7.4275 12.4046M10.3348 12.4046C10.3348 12.0191 10.1813 11.6497 9.90873 11.3771C9.63611 11.1045 9.26637 10.9513 8.88083 10.9513C8.49538 10.9513 8.12572 11.1044 7.85317 11.377C7.58062 11.6495 7.4275 12.0192 7.4275 12.4046M7.4275 12.4046H1.8335M14.1668 3.5953H12.0968M9.1895 3.5953H1.8335M9.1895 3.5953C9.1895 3.20985 9.34261 2.84019 9.61517 2.56764C9.88772 2.29509 10.2574 2.14197 10.6428 2.14197C10.8337 2.14197 11.0227 2.17956 11.199 2.2526C11.3753 2.32563 11.5355 2.43268 11.6705 2.56764C11.8054 2.70259 11.9125 2.86281 11.9855 3.03913C12.0586 3.21546 12.0962 3.40445 12.0962 3.5953C12.0962 3.78616 12.0586 3.97514 11.9855 4.15147C11.9125 4.32779 11.8054 4.48801 11.6705 4.62296C11.5355 4.75792 11.3753 4.86497 11.199 4.93801C11.0227 5.01104 10.8337 5.04863 10.6428 5.04863C10.2574 5.04863 9.88772 4.89552 9.61517 4.62296C9.34261 4.35041 9.1895 3.98075 9.1895 3.5953Z" stroke="#2E2E30" stroke-width="1.5" stroke-miterlimit="10" stroke-linecap="round"/>
</svg>
