<svg width="80" height="80" viewBox="0 0 80 80" fill="none" xmlns="http://www.w3.org/2000/svg">
<path d="M40 80C62.0914 80 80 62.0914 80 40C80 17.9086 62.0914 5.4282e-06 40 3.49691e-06C17.9086 1.56562e-06 -1.56562e-06 17.9086 -3.49691e-06 40C-5.4282e-06 62.0914 17.9086 80 40 80Z" fill="#F27B7B"/>
<path d="M40 65C53.2548 65 64 54.2548 64 41C64 27.7452 53.2548 17 40 17C26.7452 17 16 27.7452 16 41C16 54.2548 26.7452 65 40 65Z" fill="url(#paint0_radial_456_4939)"/>
<path d="M27.6867 36.8111C27.6867 38.9065 25.9899 40.6032 23.8946 40.6032C21.7992 40.6032 20.1025 38.9065 20.1025 36.8111C20.1025 34.7158 21.7992 33.019 23.8946 33.019C25.9899 33.019 27.6867 34.7158 27.6867 36.8111Z" fill="black"/>
<path d="M60.0646 36.8111C60.0646 38.9065 58.3678 40.6032 56.2725 40.6032C54.1772 40.6032 52.4805 38.9065 52.4805 36.8111C52.4805 34.7158 54.1772 33.019 56.2725 33.019C58.3678 33.019 60.0646 34.7158 60.0646 36.8111Z" fill="black"/>
<path d="M48.8604 58.9766C48.5534 58.9766 48.241 58.8904 47.9663 58.7073C45.0899 56.8005 42.5206 55.8686 40.1236 55.8686C36.8217 55.8686 33.9184 57.3983 32.0654 58.6857C31.3329 59.192 30.3256 59.0143 29.8192 58.2817C29.3129 57.5492 29.4907 56.5419 30.2232 56.0356C32.4532 54.4843 35.9814 52.6421 40.1236 52.6421C43.1777 52.6421 46.3288 53.7463 49.7546 56.0194C50.4979 56.515 50.7026 57.5169 50.2071 58.2602C49.8946 58.7288 49.3829 58.982 48.8604 58.982L48.8604 58.9766Z" fill="black"/>
<defs>
<radialGradient id="paint0_radial_456_4939" cx="0" cy="0" r="1" gradientUnits="userSpaceOnUse" gradientTransform="translate(40 41) rotate(90) scale(24 24)">
<stop stop-color="#FF5555"/>
<stop offset="1" stop-color="#F27B7B"/>
</radialGradient>
</defs>
</svg>
