<svg width="440" height="718" viewBox="0 0 440 718" fill="none" xmlns="http://www.w3.org/2000/svg">
<path d="M24.168 17.918H19.8203V15.1758H24.168C24.8398 15.1758 25.3867 15.0664 25.8086 14.8477C26.2305 14.6211 26.5391 14.3086 26.7344 13.9102C26.9297 13.5117 27.0273 13.0625 27.0273 12.5625C27.0273 12.0547 26.9297 11.582 26.7344 11.1445C26.5391 10.707 26.2305 10.3555 25.8086 10.0898C25.3867 9.82422 24.8398 9.69141 24.168 9.69141H21.0391V24H17.5234V6.9375H24.168C25.5039 6.9375 26.6484 7.17969 27.6016 7.66406C28.5625 8.14062 29.2969 8.80078 29.8047 9.64453C30.3125 10.4883 30.5664 11.4531 30.5664 12.5391C30.5664 13.6406 30.3125 14.5938 29.8047 15.3984C29.2969 16.2031 28.5625 16.8242 27.6016 17.2617C26.6484 17.6992 25.5039 17.918 24.168 17.918ZM36.1562 14.0859V24H32.7812V11.3203H35.957L36.1562 14.0859ZM39.9766 11.2383L39.918 14.3672C39.7539 14.3438 39.5547 14.3242 39.3203 14.3086C39.0938 14.2852 38.8867 14.2734 38.6992 14.2734C38.2227 14.2734 37.8086 14.3359 37.457 14.4609C37.1133 14.5781 36.8242 14.7539 36.5898 14.9883C36.3633 15.2227 36.1914 15.5078 36.0742 15.8438C35.9648 16.1797 35.9023 16.5625 35.8867 16.9922L35.207 16.7812C35.207 15.9609 35.2891 15.207 35.4531 14.5195C35.6172 13.8242 35.8555 13.2188 36.168 12.7031C36.4883 12.1875 36.8789 11.7891 37.3398 11.5078C37.8008 11.2266 38.3281 11.0859 38.9219 11.0859C39.1094 11.0859 39.3008 11.1016 39.4961 11.1328C39.6914 11.1562 39.8516 11.1914 39.9766 11.2383ZM40.6797 17.7891V17.543C40.6797 16.6133 40.8125 15.7578 41.0781 14.9766C41.3438 14.1875 41.7305 13.5039 42.2383 12.9258C42.7461 12.3477 43.3711 11.8984 44.1133 11.5781C44.8555 11.25 45.707 11.0859 46.668 11.0859C47.6289 11.0859 48.4844 11.25 49.2344 11.5781C49.9844 11.8984 50.6133 12.3477 51.1211 12.9258C51.6367 13.5039 52.0273 14.1875 52.293 14.9766C52.5586 15.7578 52.6914 16.6133 52.6914 17.543V17.7891C52.6914 18.7109 52.5586 19.5664 52.293 20.3555C52.0273 21.1367 51.6367 21.8203 51.1211 22.4062C50.6133 22.9844 49.9883 23.4336 49.2461 23.7539C48.5039 24.0742 47.6523 24.2344 46.6914 24.2344C45.7305 24.2344 44.875 24.0742 44.125 23.7539C43.3828 23.4336 42.7539 22.9844 42.2383 22.4062C41.7305 21.8203 41.3438 21.1367 41.0781 20.3555C40.8125 19.5664 40.6797 18.7109 40.6797 17.7891ZM44.0547 17.543V17.7891C44.0547 18.3203 44.1016 18.8164 44.1953 19.2773C44.2891 19.7383 44.4375 20.1445 44.6406 20.4961C44.8516 20.8398 45.125 21.1094 45.4609 21.3047C45.7969 21.5 46.207 21.5977 46.6914 21.5977C47.1602 21.5977 47.5625 21.5 47.8984 21.3047C48.2344 21.1094 48.5039 20.8398 48.707 20.4961C48.9102 20.1445 49.0586 19.7383 49.1523 19.2773C49.2539 18.8164 49.3047 18.3203 49.3047 17.7891V17.543C49.3047 17.0273 49.2539 16.543 49.1523 16.0898C49.0586 15.6289 48.9062 15.2227 48.6953 14.8711C48.4922 14.5117 48.2227 14.2305 47.8867 14.0273C47.5508 13.8242 47.1445 13.7227 46.668 13.7227C46.1914 13.7227 45.7852 13.8242 45.4492 14.0273C45.1211 14.2305 44.8516 14.5117 44.6406 14.8711C44.4375 15.2227 44.2891 15.6289 44.1953 16.0898C44.1016 16.543 44.0547 17.0273 44.0547 17.543ZM62.793 11.3203H65.8516V23.5781C65.8516 24.7344 65.5938 25.7148 65.0781 26.5195C64.5703 27.332 63.8594 27.9453 62.9453 28.3594C62.0312 28.7812 60.9688 28.9922 59.7578 28.9922C59.2266 28.9922 58.6641 28.9219 58.0703 28.7812C57.4844 28.6406 56.9219 28.4219 56.3828 28.125C55.8516 27.8281 55.4062 27.4531 55.0469 27L56.5352 25.0078C56.9258 25.4609 57.3789 25.8125 57.8945 26.0625C58.4102 26.3203 58.9805 26.4492 59.6055 26.4492C60.2148 26.4492 60.7305 26.3359 61.1523 26.1094C61.5742 25.8906 61.8984 25.5664 62.125 25.1367C62.3516 24.7148 62.4648 24.2031 62.4648 23.6016V14.25L62.793 11.3203ZM54.2617 17.8125V17.5664C54.2617 16.5977 54.3789 15.7188 54.6133 14.9297C54.8555 14.1328 55.1953 13.4492 55.6328 12.8789C56.0781 12.3086 56.6172 11.8672 57.25 11.5547C57.8828 11.2422 58.5977 11.0859 59.3945 11.0859C60.2383 11.0859 60.9453 11.2422 61.5156 11.5547C62.0859 11.8672 62.5547 12.3125 62.9219 12.8906C63.2891 13.4609 63.5742 14.1367 63.7773 14.918C63.9883 15.6914 64.1523 16.5391 64.2695 17.4609V18C64.1523 18.8828 63.9766 19.7031 63.7422 20.4609C63.5078 21.2188 63.1992 21.8828 62.8164 22.4531C62.4336 23.0156 61.957 23.4531 61.3867 23.7656C60.8242 24.0781 60.1523 24.2344 59.3711 24.2344C58.5898 24.2344 57.8828 24.0742 57.25 23.7539C56.625 23.4336 56.0898 22.9844 55.6445 22.4062C55.1992 21.8281 54.8555 21.1484 54.6133 20.3672C54.3789 19.5859 54.2617 18.7344 54.2617 17.8125ZM57.6367 17.5664V17.8125C57.6367 18.3359 57.6875 18.8242 57.7891 19.2773C57.8906 19.7305 58.0469 20.1328 58.2578 20.4844C58.4766 20.8281 58.7461 21.0977 59.0664 21.293C59.3945 21.4805 59.7812 21.5742 60.2266 21.5742C60.8438 21.5742 61.3477 21.4453 61.7383 21.1875C62.1289 20.9219 62.4219 20.5586 62.6172 20.0977C62.8125 19.6367 62.9258 19.1055 62.957 18.5039V16.9688C62.9414 16.4766 62.875 16.0352 62.7578 15.6445C62.6406 15.2461 62.4766 14.9062 62.2656 14.625C62.0547 14.3438 61.7812 14.125 61.4453 13.9688C61.1094 13.8125 60.7109 13.7344 60.25 13.7344C59.8047 13.7344 59.418 13.8359 59.0898 14.0391C58.7695 14.2344 58.5 14.5039 58.2812 14.8477C58.0703 15.1914 57.9102 15.5977 57.8008 16.0664C57.6914 16.5273 57.6367 17.0273 57.6367 17.5664ZM71.8516 14.0859V24H68.4766V11.3203H71.6523L71.8516 14.0859ZM75.6719 11.2383L75.6133 14.3672C75.4492 14.3438 75.25 14.3242 75.0156 14.3086C74.7891 14.2852 74.582 14.2734 74.3945 14.2734C73.918 14.2734 73.5039 14.3359 73.1523 14.4609C72.8086 14.5781 72.5195 14.7539 72.2852 14.9883C72.0586 15.2227 71.8867 15.5078 71.7695 15.8438C71.6602 16.1797 71.5977 16.5625 71.582 16.9922L70.9023 16.7812C70.9023 15.9609 70.9844 15.207 71.1484 14.5195C71.3125 13.8242 71.5508 13.2188 71.8633 12.7031C72.1836 12.1875 72.5742 11.7891 73.0352 11.5078C73.4961 11.2266 74.0234 11.0859 74.6172 11.0859C74.8047 11.0859 74.9961 11.1016 75.1914 11.1328C75.3867 11.1562 75.5469 11.1914 75.6719 11.2383ZM82.8672 24.2344C81.8828 24.2344 81 24.0781 80.2188 23.7656C79.4375 23.4453 78.7734 23.0039 78.2266 22.4414C77.6875 21.8789 77.2734 21.2266 76.9844 20.4844C76.6953 19.7344 76.5508 18.9375 76.5508 18.0938V17.625C76.5508 16.6641 76.6875 15.7852 76.9609 14.9883C77.2344 14.1914 77.625 13.5 78.1328 12.9141C78.6484 12.3281 79.2734 11.8789 80.0078 11.5664C80.7422 11.2461 81.5703 11.0859 82.4922 11.0859C83.3906 11.0859 84.1875 11.2344 84.8828 11.5312C85.5781 11.8281 86.1602 12.25 86.6289 12.7969C87.1055 13.3438 87.4648 14 87.707 14.7656C87.9492 15.5234 88.0703 16.3672 88.0703 17.2969V18.7031H77.9922V16.4531H84.7539V16.1953C84.7539 15.7266 84.668 15.3086 84.4961 14.9414C84.332 14.5664 84.082 14.2695 83.7461 14.0508C83.4102 13.832 82.9805 13.7227 82.457 13.7227C82.0117 13.7227 81.6289 13.8203 81.3086 14.0156C80.9883 14.2109 80.7266 14.4844 80.5234 14.8359C80.3281 15.1875 80.1797 15.6016 80.0781 16.0781C79.9844 16.5469 79.9375 17.0625 79.9375 17.625V18.0938C79.9375 18.6016 80.0078 19.0703 80.1484 19.5C80.2969 19.9297 80.5039 20.3008 80.7695 20.6133C81.043 20.9258 81.3711 21.168 81.7539 21.3398C82.1445 21.5117 82.5859 21.5977 83.0781 21.5977C83.6875 21.5977 84.2539 21.4805 84.7773 21.2461C85.3086 21.0039 85.7656 20.6406 86.1484 20.1562L87.7891 21.9375C87.5234 22.3203 87.1602 22.6875 86.6992 23.0391C86.2461 23.3906 85.6992 23.6797 85.0586 23.9062C84.418 24.125 83.6875 24.2344 82.8672 24.2344ZM96.8477 20.4961C96.8477 20.2539 96.7773 20.0352 96.6367 19.8398C96.4961 19.6445 96.2344 19.4648 95.8516 19.3008C95.4766 19.1289 94.9336 18.9727 94.2227 18.832C93.582 18.6914 92.9844 18.5156 92.4297 18.3047C91.8828 18.0859 91.4062 17.8242 91 17.5195C90.6016 17.2148 90.2891 16.8555 90.0625 16.4414C89.8359 16.0195 89.7227 15.5391 89.7227 15C89.7227 14.4688 89.8359 13.9688 90.0625 13.5C90.2969 13.0312 90.6289 12.6172 91.0586 12.2578C91.4961 11.8906 92.0273 11.6055 92.6523 11.4023C93.2852 11.1914 93.9961 11.0859 94.7852 11.0859C95.8867 11.0859 96.832 11.2617 97.6211 11.6133C98.418 11.9648 99.0273 12.4492 99.4492 13.0664C99.8789 13.6758 100.094 14.3711 100.094 15.1523H96.7188C96.7188 14.8242 96.6484 14.5312 96.5078 14.2734C96.375 14.0078 96.1641 13.8008 95.875 13.6523C95.5938 13.4961 95.2266 13.418 94.7734 13.418C94.3984 13.418 94.0742 13.4844 93.8008 13.6172C93.5273 13.7422 93.3164 13.9141 93.168 14.1328C93.0273 14.3438 92.957 14.5781 92.957 14.8359C92.957 15.0312 92.9961 15.207 93.0742 15.3633C93.1602 15.5117 93.2969 15.6484 93.4844 15.7734C93.6719 15.8984 93.9141 16.0156 94.2109 16.125C94.5156 16.2266 94.8906 16.3203 95.3359 16.4062C96.25 16.5938 97.0664 16.8398 97.7852 17.1445C98.5039 17.4414 99.0742 17.8477 99.4961 18.3633C99.918 18.8711 100.129 19.5391 100.129 20.3672C100.129 20.9297 100.004 21.4453 99.7539 21.9141C99.5039 22.3828 99.1445 22.793 98.6758 23.1445C98.207 23.4883 97.6445 23.7578 96.9883 23.9531C96.3398 24.1406 95.6094 24.2344 94.7969 24.2344C93.6172 24.2344 92.6172 24.0234 91.7969 23.6016C90.9844 23.1797 90.3672 22.6445 89.9453 21.9961C89.5312 21.3398 89.3242 20.668 89.3242 19.9805H92.5234C92.5391 20.4414 92.6562 20.8125 92.875 21.0938C93.1016 21.375 93.3867 21.5781 93.7305 21.7031C94.082 21.8281 94.4609 21.8906 94.8672 21.8906C95.3047 21.8906 95.668 21.832 95.957 21.7148C96.2461 21.5898 96.4648 21.4258 96.6133 21.2227C96.7695 21.0117 96.8477 20.7695 96.8477 20.4961ZM109.176 20.4961C109.176 20.2539 109.105 20.0352 108.965 19.8398C108.824 19.6445 108.562 19.4648 108.18 19.3008C107.805 19.1289 107.262 18.9727 106.551 18.832C105.91 18.6914 105.312 18.5156 104.758 18.3047C104.211 18.0859 103.734 17.8242 103.328 17.5195C102.93 17.2148 102.617 16.8555 102.391 16.4414C102.164 16.0195 102.051 15.5391 102.051 15C102.051 14.4688 102.164 13.9688 102.391 13.5C102.625 13.0312 102.957 12.6172 103.387 12.2578C103.824 11.8906 104.355 11.6055 104.98 11.4023C105.613 11.1914 106.324 11.0859 107.113 11.0859C108.215 11.0859 109.16 11.2617 109.949 11.6133C110.746 11.9648 111.355 12.4492 111.777 13.0664C112.207 13.6758 112.422 14.3711 112.422 15.1523H109.047C109.047 14.8242 108.977 14.5312 108.836 14.2734C108.703 14.0078 108.492 13.8008 108.203 13.6523C107.922 13.4961 107.555 13.418 107.102 13.418C106.727 13.418 106.402 13.4844 106.129 13.6172C105.855 13.7422 105.645 13.9141 105.496 14.1328C105.355 14.3438 105.285 14.5781 105.285 14.8359C105.285 15.0312 105.324 15.207 105.402 15.3633C105.488 15.5117 105.625 15.6484 105.812 15.7734C106 15.8984 106.242 16.0156 106.539 16.125C106.844 16.2266 107.219 16.3203 107.664 16.4062C108.578 16.5938 109.395 16.8398 110.113 17.1445C110.832 17.4414 111.402 17.8477 111.824 18.3633C112.246 18.8711 112.457 19.5391 112.457 20.3672C112.457 20.9297 112.332 21.4453 112.082 21.9141C111.832 22.3828 111.473 22.793 111.004 23.1445C110.535 23.4883 109.973 23.7578 109.316 23.9531C108.668 24.1406 107.938 24.2344 107.125 24.2344C105.945 24.2344 104.945 24.0234 104.125 23.6016C103.312 23.1797 102.695 22.6445 102.273 21.9961C101.859 21.3398 101.652 20.668 101.652 19.9805H104.852C104.867 20.4414 104.984 20.8125 105.203 21.0938C105.43 21.375 105.715 21.5781 106.059 21.7031C106.41 21.8281 106.789 21.8906 107.195 21.8906C107.633 21.8906 107.996 21.832 108.285 21.7148C108.574 21.5898 108.793 21.4258 108.941 21.2227C109.098 21.0117 109.176 20.7695 109.176 20.4961Z" fill="#2E2E30"/>
<path d="M19.5234 50.625V62H18.0391V50.625H19.5234ZM23.1797 50.625V51.8594H14.3906V50.625H23.1797ZM23.4844 57.8672V57.6875C23.4844 57.0781 23.5729 56.513 23.75 55.9922C23.9271 55.4661 24.1823 55.0104 24.5156 54.625C24.849 54.2344 25.2526 53.9323 25.7266 53.7188C26.2005 53.5 26.7318 53.3906 27.3203 53.3906C27.9141 53.3906 28.4479 53.5 28.9219 53.7188C29.401 53.9323 29.8073 54.2344 30.1406 54.625C30.4792 55.0104 30.737 55.4661 30.9141 55.9922C31.0911 56.513 31.1797 57.0781 31.1797 57.6875V57.8672C31.1797 58.4766 31.0911 59.0417 30.9141 59.5625C30.737 60.0833 30.4792 60.5391 30.1406 60.9297C29.8073 61.3151 29.4036 61.6172 28.9297 61.8359C28.4609 62.0495 27.9297 62.1562 27.3359 62.1562C26.7422 62.1562 26.2083 62.0495 25.7344 61.8359C25.2604 61.6172 24.8542 61.3151 24.5156 60.9297C24.1823 60.5391 23.9271 60.0833 23.75 59.5625C23.5729 59.0417 23.4844 58.4766 23.4844 57.8672ZM24.9297 57.6875V57.8672C24.9297 58.2891 24.9792 58.6875 25.0781 59.0625C25.1771 59.4323 25.3255 59.7604 25.5234 60.0469C25.7266 60.3333 25.9792 60.5599 26.2812 60.7266C26.5833 60.888 26.9349 60.9688 27.3359 60.9688C27.7318 60.9688 28.0781 60.888 28.375 60.7266C28.6771 60.5599 28.9271 60.3333 29.125 60.0469C29.3229 59.7604 29.4714 59.4323 29.5703 59.0625C29.6745 58.6875 29.7266 58.2891 29.7266 57.8672V57.6875C29.7266 57.2708 29.6745 56.8776 29.5703 56.5078C29.4714 56.1328 29.3203 55.8021 29.1172 55.5156C28.9193 55.224 28.6693 54.9948 28.3672 54.8281C28.0703 54.6615 27.7214 54.5781 27.3203 54.5781C26.9245 54.5781 26.5755 54.6615 26.2734 54.8281C25.9766 54.9948 25.7266 55.224 25.5234 55.5156C25.3255 55.8021 25.1771 56.1328 25.0781 56.5078C24.9792 56.8776 24.9297 57.2708 24.9297 57.6875ZM38.3203 60.3594V50H39.7734V62H38.4453L38.3203 60.3594ZM32.6328 57.8672V57.7031C32.6328 57.0573 32.7109 56.4714 32.8672 55.9453C33.0286 55.4141 33.2552 54.9583 33.5469 54.5781C33.8438 54.1979 34.1953 53.9062 34.6016 53.7031C35.013 53.4948 35.4714 53.3906 35.9766 53.3906C36.5078 53.3906 36.9714 53.4844 37.3672 53.6719C37.7682 53.8542 38.1068 54.1224 38.3828 54.4766C38.6641 54.8255 38.8854 55.2474 39.0469 55.7422C39.2083 56.237 39.3203 56.7969 39.3828 57.4219V58.1406C39.3255 58.7604 39.2135 59.3177 39.0469 59.8125C38.8854 60.3073 38.6641 60.7292 38.3828 61.0781C38.1068 61.4271 37.7682 61.6953 37.3672 61.8828C36.9661 62.0651 36.4974 62.1562 35.9609 62.1562C35.4661 62.1562 35.013 62.0495 34.6016 61.8359C34.1953 61.6224 33.8438 61.3229 33.5469 60.9375C33.2552 60.5521 33.0286 60.099 32.8672 59.5781C32.7109 59.0521 32.6328 58.4818 32.6328 57.8672ZM34.0859 57.7031V57.8672C34.0859 58.2891 34.1276 58.6849 34.2109 59.0547C34.2995 59.4245 34.4349 59.75 34.6172 60.0312C34.7995 60.3125 35.0312 60.5339 35.3125 60.6953C35.5938 60.8516 35.9297 60.9297 36.3203 60.9297C36.7995 60.9297 37.1927 60.8281 37.5 60.625C37.8125 60.4219 38.0625 60.1536 38.25 59.8203C38.4375 59.487 38.5833 59.125 38.6875 58.7344V56.8516C38.625 56.5651 38.5339 56.2891 38.4141 56.0234C38.2995 55.7526 38.1484 55.513 37.9609 55.3047C37.7786 55.0911 37.5521 54.9219 37.2812 54.7969C37.0156 54.6719 36.7005 54.6094 36.3359 54.6094C35.9401 54.6094 35.599 54.6927 35.3125 54.8594C35.0312 55.0208 34.7995 55.2448 34.6172 55.5312C34.4349 55.8125 34.2995 56.1406 34.2109 56.5156C34.1276 56.8854 34.0859 57.2812 34.0859 57.7031ZM47.0078 60.5547V56.2031C47.0078 55.8698 46.9401 55.5807 46.8047 55.3359C46.6745 55.0859 46.4766 54.8932 46.2109 54.7578C45.9453 54.6224 45.6172 54.5547 45.2266 54.5547C44.862 54.5547 44.5417 54.6172 44.2656 54.7422C43.9948 54.8672 43.7812 55.0312 43.625 55.2344C43.474 55.4375 43.3984 55.6562 43.3984 55.8906H41.9531C41.9531 55.5885 42.0312 55.2891 42.1875 54.9922C42.3438 54.6953 42.5677 54.4271 42.8594 54.1875C43.1562 53.9427 43.5104 53.75 43.9219 53.6094C44.3385 53.4635 44.8021 53.3906 45.3125 53.3906C45.9271 53.3906 46.4688 53.4948 46.9375 53.7031C47.4115 53.9115 47.7812 54.2266 48.0469 54.6484C48.3177 55.0651 48.4531 55.5885 48.4531 56.2188V60.1562C48.4531 60.4375 48.4766 60.737 48.5234 61.0547C48.5755 61.3724 48.651 61.6458 48.75 61.875V62H47.2422C47.1693 61.8333 47.112 61.612 47.0703 61.3359C47.0286 61.0547 47.0078 60.7943 47.0078 60.5547ZM47.2578 56.875L47.2734 57.8906H45.8125C45.401 57.8906 45.0339 57.9245 44.7109 57.9922C44.388 58.0547 44.1172 58.151 43.8984 58.2812C43.6797 58.4115 43.513 58.5755 43.3984 58.7734C43.2839 58.9661 43.2266 59.1927 43.2266 59.4531C43.2266 59.7188 43.2865 59.9609 43.4062 60.1797C43.526 60.3984 43.7057 60.5729 43.9453 60.7031C44.1901 60.8281 44.4896 60.8906 44.8438 60.8906C45.2865 60.8906 45.6771 60.7969 46.0156 60.6094C46.3542 60.4219 46.6224 60.1927 46.8203 59.9219C47.0234 59.651 47.1328 59.388 47.1484 59.1328L47.7656 59.8281C47.7292 60.0469 47.6302 60.2891 47.4688 60.5547C47.3073 60.8203 47.0911 61.0755 46.8203 61.3203C46.5547 61.5599 46.237 61.7604 45.8672 61.9219C45.5026 62.0781 45.0911 62.1562 44.6328 62.1562C44.0599 62.1562 43.5573 62.0443 43.125 61.8203C42.6979 61.5964 42.3646 61.2969 42.125 60.9219C41.8906 60.5417 41.7734 60.1172 41.7734 59.6484C41.7734 59.1953 41.862 58.7969 42.0391 58.4531C42.2161 58.1042 42.4714 57.8151 42.8047 57.5859C43.138 57.3516 43.5391 57.1745 44.0078 57.0547C44.4766 56.9349 45 56.875 45.5781 56.875H47.2578ZM52.9766 61.125L55.3281 53.5469H56.875L53.4844 63.3047C53.4062 63.513 53.3021 63.737 53.1719 63.9766C53.0469 64.2214 52.8854 64.4531 52.6875 64.6719C52.4896 64.8906 52.25 65.0677 51.9688 65.2031C51.6927 65.3438 51.362 65.4141 50.9766 65.4141C50.862 65.4141 50.7161 65.3984 50.5391 65.3672C50.362 65.3359 50.237 65.3099 50.1641 65.2891L50.1562 64.1172C50.1979 64.1224 50.263 64.1276 50.3516 64.1328C50.4453 64.1432 50.5104 64.1484 50.5469 64.1484C50.875 64.1484 51.1536 64.1042 51.3828 64.0156C51.612 63.9323 51.8047 63.7891 51.9609 63.5859C52.1224 63.388 52.2604 63.1146 52.375 62.7656L52.9766 61.125ZM51.25 53.5469L53.4453 60.1094L53.8203 61.6328L52.7812 62.1641L49.6719 53.5469H51.25ZM58.6484 60.2812V61.4453C58.6484 61.9193 58.5286 62.4193 58.2891 62.9453C58.0495 63.4766 57.7135 63.9193 57.2812 64.2734L56.4609 63.7031C56.6276 63.474 56.7682 63.2396 56.8828 63C56.9974 62.7656 57.0833 62.5208 57.1406 62.2656C57.2031 62.0156 57.2344 61.75 57.2344 61.4688V60.2812H58.6484ZM66.1875 50.625V62H64.6797V50.625H66.1875ZM70.9531 55.7422V56.9766H65.8594V55.7422H70.9531ZM71.7266 50.625V51.8594H65.8594V50.625H71.7266ZM76.6406 62.1562C76.0521 62.1562 75.5182 62.0573 75.0391 61.8594C74.5651 61.6562 74.1562 61.3724 73.8125 61.0078C73.474 60.6432 73.2135 60.2109 73.0312 59.7109C72.849 59.2109 72.7578 58.6641 72.7578 58.0703V57.7422C72.7578 57.0547 72.8594 56.4427 73.0625 55.9062C73.2656 55.3646 73.5417 54.9062 73.8906 54.5312C74.2396 54.1562 74.6354 53.8724 75.0781 53.6797C75.5208 53.487 75.9792 53.3906 76.4531 53.3906C77.0573 53.3906 77.5781 53.4948 78.0156 53.7031C78.4583 53.9115 78.8203 54.2031 79.1016 54.5781C79.3828 54.9479 79.5911 55.3854 79.7266 55.8906C79.862 56.3906 79.9297 56.9375 79.9297 57.5312V58.1797H73.6172V57H78.4844V56.8906C78.4635 56.5156 78.3854 56.151 78.25 55.7969C78.1198 55.4427 77.9115 55.151 77.625 54.9219C77.3385 54.6927 76.9479 54.5781 76.4531 54.5781C76.125 54.5781 75.8229 54.6484 75.5469 54.7891C75.2708 54.9245 75.0339 55.1276 74.8359 55.3984C74.638 55.6693 74.4844 56 74.375 56.3906C74.2656 56.7812 74.2109 57.2318 74.2109 57.7422V58.0703C74.2109 58.4714 74.2656 58.849 74.375 59.2031C74.4896 59.5521 74.6536 59.8594 74.8672 60.125C75.0859 60.3906 75.349 60.599 75.6562 60.75C75.9688 60.901 76.3229 60.9766 76.7188 60.9766C77.2292 60.9766 77.6615 60.8724 78.0156 60.6641C78.3698 60.4557 78.6797 60.1771 78.9453 59.8281L79.8203 60.5234C79.638 60.7995 79.4062 61.0625 79.125 61.3125C78.8438 61.5625 78.4974 61.7656 78.0859 61.9219C77.6797 62.0781 77.1979 62.1562 76.6406 62.1562ZM81.6094 50H83.0625V60.3594L82.9375 62H81.6094V50ZM88.7734 57.7031V57.8672C88.7734 58.4818 88.7005 59.0521 88.5547 59.5781C88.4089 60.099 88.1953 60.5521 87.9141 60.9375C87.6328 61.3229 87.2891 61.6224 86.8828 61.8359C86.4766 62.0495 86.0104 62.1562 85.4844 62.1562C84.9479 62.1562 84.4766 62.0651 84.0703 61.8828C83.6693 61.6953 83.3307 61.4271 83.0547 61.0781C82.7786 60.7292 82.5573 60.3073 82.3906 59.8125C82.2292 59.3177 82.1172 58.7604 82.0547 58.1406V57.4219C82.1172 56.7969 82.2292 56.237 82.3906 55.7422C82.5573 55.2474 82.7786 54.8255 83.0547 54.4766C83.3307 54.1224 83.6693 53.8542 84.0703 53.6719C84.4714 53.4844 84.9375 53.3906 85.4688 53.3906C86 53.3906 86.4714 53.4948 86.8828 53.7031C87.2943 53.9062 87.638 54.1979 87.9141 54.5781C88.1953 54.9583 88.4089 55.4141 88.5547 55.9453C88.7005 56.4714 88.7734 57.0573 88.7734 57.7031ZM87.3203 57.8672V57.7031C87.3203 57.2812 87.2812 56.8854 87.2031 56.5156C87.125 56.1406 87 55.8125 86.8281 55.5312C86.6562 55.2448 86.4297 55.0208 86.1484 54.8594C85.8672 54.6927 85.5208 54.6094 85.1094 54.6094C84.7448 54.6094 84.4271 54.6719 84.1562 54.7969C83.8906 54.9219 83.6641 55.0911 83.4766 55.3047C83.2891 55.513 83.1354 55.7526 83.0156 56.0234C82.901 56.2891 82.8151 56.5651 82.7578 56.8516V58.7344C82.8411 59.099 82.9766 59.4505 83.1641 59.7891C83.3568 60.1224 83.612 60.3958 83.9297 60.6094C84.2526 60.8229 84.651 60.9297 85.125 60.9297C85.5156 60.9297 85.849 60.8516 86.125 60.6953C86.4062 60.5339 86.6328 60.3125 86.8047 60.0312C86.9818 59.75 87.112 59.4245 87.1953 59.0547C87.2786 58.6849 87.3203 58.2891 87.3203 57.8672ZM101.867 60.8125V62H94.4219V60.9609L98.1484 56.8125C98.6068 56.3021 98.9609 55.8698 99.2109 55.5156C99.4661 55.1562 99.6432 54.8359 99.7422 54.5547C99.8464 54.2682 99.8984 53.9766 99.8984 53.6797C99.8984 53.3047 99.8203 52.9661 99.6641 52.6641C99.513 52.3568 99.2891 52.112 98.9922 51.9297C98.6953 51.7474 98.3359 51.6562 97.9141 51.6562C97.4089 51.6562 96.987 51.7552 96.6484 51.9531C96.3151 52.1458 96.0651 52.4167 95.8984 52.7656C95.7318 53.1146 95.6484 53.5156 95.6484 53.9688H94.2031C94.2031 53.3281 94.3438 52.7422 94.625 52.2109C94.9062 51.6797 95.3229 51.2578 95.875 50.9453C96.4271 50.6276 97.1068 50.4688 97.9141 50.4688C98.6328 50.4688 99.2474 50.5964 99.7578 50.8516C100.268 51.1016 100.659 51.4557 100.93 51.9141C101.206 52.3672 101.344 52.8984 101.344 53.5078C101.344 53.8411 101.286 54.1797 101.172 54.5234C101.062 54.862 100.909 55.2005 100.711 55.5391C100.518 55.8776 100.292 56.2109 100.031 56.5391C99.776 56.8672 99.5026 57.1901 99.2109 57.5078L96.1641 60.8125H101.867ZM110.555 55.4062V57.1406C110.555 58.0729 110.471 58.8594 110.305 59.5C110.138 60.1406 109.898 60.6562 109.586 61.0469C109.273 61.4375 108.896 61.7214 108.453 61.8984C108.016 62.0703 107.521 62.1562 106.969 62.1562C106.531 62.1562 106.128 62.1016 105.758 61.9922C105.388 61.8828 105.055 61.7083 104.758 61.4688C104.466 61.224 104.216 60.9062 104.008 60.5156C103.799 60.125 103.641 59.651 103.531 59.0938C103.422 58.5365 103.367 57.8854 103.367 57.1406V55.4062C103.367 54.474 103.451 53.6927 103.617 53.0625C103.789 52.4323 104.031 51.9271 104.344 51.5469C104.656 51.1615 105.031 50.8854 105.469 50.7188C105.911 50.5521 106.406 50.4688 106.953 50.4688C107.396 50.4688 107.802 50.5234 108.172 50.6328C108.547 50.737 108.88 50.9062 109.172 51.1406C109.464 51.3698 109.711 51.6771 109.914 52.0625C110.122 52.4427 110.281 52.9089 110.391 53.4609C110.5 54.013 110.555 54.6615 110.555 55.4062ZM109.102 57.375V55.1641C109.102 54.6536 109.07 54.2057 109.008 53.8203C108.951 53.4297 108.865 53.0964 108.75 52.8203C108.635 52.5443 108.49 52.3203 108.312 52.1484C108.141 51.9766 107.94 51.8516 107.711 51.7734C107.487 51.6901 107.234 51.6484 106.953 51.6484C106.609 51.6484 106.305 51.7135 106.039 51.8438C105.773 51.9688 105.549 52.1693 105.367 52.4453C105.19 52.7214 105.055 53.0833 104.961 53.5312C104.867 53.9792 104.82 54.5234 104.82 55.1641V57.375C104.82 57.8854 104.849 58.3359 104.906 58.7266C104.969 59.1172 105.06 59.4557 105.18 59.7422C105.299 60.0234 105.445 60.2552 105.617 60.4375C105.789 60.6198 105.987 60.7552 106.211 60.8438C106.44 60.9271 106.693 60.9688 106.969 60.9688C107.323 60.9688 107.633 60.901 107.898 60.7656C108.164 60.6302 108.385 60.4193 108.562 60.1328C108.745 59.8411 108.88 59.4688 108.969 59.0156C109.057 58.5573 109.102 58.0104 109.102 57.375Z" fill="#2E2E30"/>
<path d="M14.0114 667V655.364H18.6705C19.5265 655.364 20.2405 655.491 20.8125 655.744C21.3845 655.998 21.8144 656.35 22.1023 656.801C22.3902 657.248 22.5341 657.763 22.5341 658.347C22.5341 658.801 22.4432 659.201 22.2614 659.545C22.0795 659.886 21.8295 660.167 21.5114 660.386C21.197 660.602 20.8371 660.756 20.4318 660.847V660.96C20.875 660.979 21.2898 661.104 21.6761 661.335C22.0663 661.566 22.3826 661.89 22.625 662.307C22.8674 662.72 22.9886 663.212 22.9886 663.784C22.9886 664.402 22.8352 664.953 22.5284 665.438C22.2254 665.919 21.7765 666.299 21.1818 666.58C20.5871 666.86 19.8542 667 18.983 667H14.0114ZM16.4716 664.989H18.4773C19.1629 664.989 19.6629 664.858 19.9773 664.597C20.2917 664.331 20.4489 663.979 20.4489 663.54C20.4489 663.218 20.3712 662.934 20.2159 662.688C20.0606 662.441 19.839 662.248 19.5511 662.108C19.267 661.968 18.928 661.898 18.5341 661.898H16.4716V664.989ZM16.4716 660.233H18.2955C18.6326 660.233 18.9318 660.174 19.1932 660.057C19.4583 659.936 19.6667 659.765 19.8182 659.545C19.9735 659.326 20.0511 659.062 20.0511 658.756C20.0511 658.335 19.9015 657.996 19.6023 657.739C19.3068 657.481 18.8864 657.352 18.3409 657.352H16.4716V660.233ZM28.4872 667.17C27.6046 667.17 26.8414 666.983 26.1974 666.608C25.5573 666.229 25.063 665.703 24.7145 665.028C24.366 664.35 24.1918 663.564 24.1918 662.67C24.1918 661.769 24.366 660.981 24.7145 660.307C25.063 659.629 25.5573 659.102 26.1974 658.727C26.8414 658.348 27.6046 658.159 28.4872 658.159C29.3698 658.159 30.1312 658.348 30.7713 658.727C31.4152 659.102 31.9115 659.629 32.2599 660.307C32.6084 660.981 32.7827 661.769 32.7827 662.67C32.7827 663.564 32.6084 664.35 32.2599 665.028C31.9115 665.703 31.4152 666.229 30.7713 666.608C30.1312 666.983 29.3698 667.17 28.4872 667.17ZM28.4986 665.295C28.9001 665.295 29.2353 665.182 29.5043 664.955C29.7732 664.723 29.9759 664.409 30.1122 664.011C30.2524 663.614 30.3224 663.161 30.3224 662.653C30.3224 662.146 30.2524 661.693 30.1122 661.295C29.9759 660.898 29.7732 660.583 29.5043 660.352C29.2353 660.121 28.9001 660.006 28.4986 660.006C28.0933 660.006 27.7524 660.121 27.4759 660.352C27.2031 660.583 26.9967 660.898 26.8565 661.295C26.7202 661.693 26.652 662.146 26.652 662.653C26.652 663.161 26.7202 663.614 26.8565 664.011C26.9967 664.409 27.2031 664.723 27.4759 664.955C27.7524 665.182 28.0933 665.295 28.4986 665.295ZM37.5724 667.142C36.9096 667.142 36.3092 666.972 35.7713 666.631C35.2372 666.286 34.813 665.78 34.4986 665.114C34.188 664.443 34.0327 663.621 34.0327 662.648C34.0327 661.648 34.1937 660.816 34.5156 660.153C34.8376 659.487 35.2656 658.989 35.7997 658.659C36.3376 658.326 36.9266 658.159 37.5668 658.159C38.0554 658.159 38.4626 658.242 38.7884 658.409C39.1179 658.572 39.383 658.777 39.5838 659.023C39.7884 659.265 39.9437 659.504 40.0497 659.739H40.1236V655.364H42.5384V667H40.152V665.602H40.0497C39.9361 665.845 39.7751 666.085 39.5668 666.324C39.3622 666.559 39.0952 666.754 38.7656 666.909C38.4399 667.064 38.0421 667.142 37.5724 667.142ZM38.3395 665.216C38.7296 665.216 39.0592 665.11 39.3281 664.898C39.6009 664.682 39.8092 664.381 39.9531 663.994C40.1009 663.608 40.1747 663.155 40.1747 662.636C40.1747 662.117 40.1027 661.667 39.9588 661.284C39.8149 660.902 39.6065 660.606 39.3338 660.398C39.0611 660.189 38.7296 660.085 38.3395 660.085C37.9418 660.085 37.6065 660.193 37.3338 660.409C37.0611 660.625 36.8546 660.924 36.7145 661.307C36.5743 661.689 36.5043 662.133 36.5043 662.636C36.5043 663.144 36.5743 663.593 36.7145 663.983C36.8584 664.369 37.0649 664.672 37.3338 664.892C37.6065 665.108 37.9418 665.216 38.3395 665.216ZM46.0227 670.273C45.7159 670.273 45.428 670.248 45.1591 670.199C44.8939 670.153 44.6742 670.095 44.5 670.023L45.0455 668.216C45.3295 668.303 45.5852 668.35 45.8125 668.358C46.0436 668.366 46.2424 668.313 46.4091 668.199C46.5795 668.085 46.7178 667.892 46.8239 667.619L46.9659 667.25L43.8352 658.273H46.3807L48.1875 664.682H48.2784L50.1023 658.273H52.6648L49.2727 667.943C49.1098 668.413 48.8883 668.822 48.608 669.17C48.3314 669.523 47.9811 669.794 47.5568 669.983C47.1326 670.176 46.6212 670.273 46.0227 670.273ZM57.652 667V655.364H62.2429C63.1255 655.364 63.8774 655.532 64.4986 655.869C65.1198 656.203 65.5933 656.667 65.919 657.261C66.2486 657.852 66.4134 658.534 66.4134 659.307C66.4134 660.08 66.2467 660.761 65.9134 661.352C65.58 661.943 65.0971 662.403 64.4645 662.733C63.8357 663.062 63.0743 663.227 62.1804 663.227H59.2543V661.256H61.7827C62.2562 661.256 62.6463 661.174 62.9531 661.011C63.2637 660.845 63.4948 660.616 63.6463 660.324C63.8016 660.028 63.8793 659.689 63.8793 659.307C63.8793 658.92 63.8016 658.583 63.6463 658.295C63.4948 658.004 63.2637 657.778 62.9531 657.619C62.6425 657.456 62.2486 657.375 61.7713 657.375H60.1122V667H57.652ZM70.2202 667.165C69.6634 667.165 69.1671 667.068 68.7315 666.875C68.2959 666.678 67.9512 666.388 67.6974 666.006C67.4474 665.619 67.3224 665.138 67.3224 664.562C67.3224 664.078 67.4115 663.67 67.5895 663.341C67.7675 663.011 68.0099 662.746 68.3168 662.545C68.6236 662.345 68.9721 662.193 69.3622 662.091C69.7562 661.989 70.169 661.917 70.6009 661.875C71.1084 661.822 71.5175 661.773 71.8281 661.727C72.1387 661.678 72.3641 661.606 72.5043 661.511C72.6444 661.417 72.7145 661.277 72.7145 661.091V661.057C72.7145 660.697 72.6009 660.419 72.3736 660.222C72.1501 660.025 71.8319 659.926 71.419 659.926C70.9834 659.926 70.6368 660.023 70.3793 660.216C70.1217 660.405 69.9512 660.644 69.8679 660.932L67.6293 660.75C67.7429 660.22 67.9664 659.761 68.2997 659.375C68.633 658.985 69.063 658.686 69.5895 658.477C70.1198 658.265 70.7334 658.159 71.4304 658.159C71.9152 658.159 72.3793 658.216 72.8224 658.33C73.2694 658.443 73.6652 658.619 74.0099 658.858C74.3584 659.097 74.633 659.403 74.8338 659.778C75.0346 660.15 75.1349 660.595 75.1349 661.114V667H72.8395V665.79H72.7713C72.6312 666.062 72.4437 666.303 72.2088 666.511C71.974 666.716 71.6918 666.877 71.3622 666.994C71.0327 667.108 70.652 667.165 70.2202 667.165ZM70.9134 665.494C71.2694 665.494 71.5838 665.424 71.8565 665.284C72.1293 665.14 72.3433 664.947 72.4986 664.705C72.6539 664.462 72.7315 664.187 72.7315 663.881V662.955C72.6558 663.004 72.5516 663.049 72.419 663.091C72.2902 663.129 72.1444 663.165 71.9815 663.199C71.8187 663.229 71.6558 663.258 71.4929 663.284C71.33 663.307 71.1823 663.328 71.0497 663.347C70.7656 663.388 70.5175 663.455 70.3054 663.545C70.0933 663.636 69.9285 663.759 69.8111 663.915C69.6937 664.066 69.6349 664.256 69.6349 664.483C69.6349 664.812 69.7543 665.064 69.9929 665.239C70.2353 665.409 70.5421 665.494 70.9134 665.494ZM77.0128 667V658.273H79.3594V659.795H79.4503C79.6094 659.254 79.8764 658.845 80.2514 658.568C80.6264 658.288 81.0582 658.148 81.5469 658.148C81.6681 658.148 81.7988 658.155 81.9389 658.17C82.0791 658.186 82.2022 658.206 82.3082 658.233V660.381C82.1946 660.347 82.0374 660.316 81.8366 660.29C81.6359 660.263 81.4522 660.25 81.2855 660.25C80.9295 660.25 80.6113 660.328 80.331 660.483C80.0545 660.634 79.8348 660.847 79.6719 661.119C79.5128 661.392 79.4332 661.706 79.4332 662.062V667H77.0128ZM88.6392 658.273V660.091H83.3835V658.273H88.6392ZM84.5767 656.182H86.9972V664.318C86.9972 664.542 87.0313 664.716 87.0994 664.841C87.1676 664.962 87.2623 665.047 87.3835 665.097C87.5085 665.146 87.6525 665.17 87.8153 665.17C87.929 665.17 88.0426 665.161 88.1562 665.142C88.2699 665.119 88.357 665.102 88.4176 665.091L88.7983 666.892C88.6771 666.93 88.5066 666.973 88.2869 667.023C88.0672 667.076 87.8002 667.108 87.4858 667.119C86.9025 667.142 86.3911 667.064 85.9517 666.886C85.5161 666.708 85.1771 666.432 84.9347 666.057C84.6922 665.682 84.5729 665.208 84.5767 664.636V656.182ZM97.3679 660.761L95.152 660.898C95.1141 660.708 95.0327 660.538 94.9077 660.386C94.7827 660.231 94.6179 660.108 94.4134 660.017C94.2126 659.922 93.9721 659.875 93.6918 659.875C93.3168 659.875 93.0005 659.955 92.7429 660.114C92.4853 660.269 92.3565 660.477 92.3565 660.739C92.3565 660.947 92.4399 661.123 92.6065 661.267C92.7732 661.411 93.0592 661.527 93.4645 661.614L95.044 661.932C95.8925 662.106 96.5251 662.386 96.9418 662.773C97.3584 663.159 97.5668 663.667 97.5668 664.295C97.5668 664.867 97.3982 665.369 97.0611 665.801C96.7277 666.233 96.2694 666.57 95.6861 666.812C95.1065 667.051 94.438 667.17 93.6804 667.17C92.5251 667.17 91.6046 666.93 90.919 666.449C90.2372 665.964 89.8376 665.305 89.7202 664.472L92.1009 664.347C92.1728 664.699 92.3471 664.968 92.6236 665.153C92.9001 665.335 93.2543 665.426 93.6861 665.426C94.1103 665.426 94.4512 665.345 94.7088 665.182C94.9702 665.015 95.1027 664.801 95.1065 664.54C95.1027 664.32 95.0099 664.14 94.8281 664C94.6463 663.856 94.366 663.746 93.9872 663.67L92.4759 663.369C91.6236 663.199 90.9891 662.903 90.5724 662.483C90.1596 662.062 89.9531 661.527 89.9531 660.875C89.9531 660.314 90.1046 659.831 90.4077 659.426C90.7145 659.021 91.1444 658.708 91.6974 658.489C92.2543 658.269 92.9058 658.159 93.652 658.159C94.7543 658.159 95.6217 658.392 96.2543 658.858C96.8906 659.324 97.2618 659.958 97.3679 660.761Z" fill="#2E2E30"/>
<mask id="path-4-inside-1_1904_4003" fill="white">
<path d="M13 702C13 693.163 20.1634 686 29 686H61C69.8366 686 77 693.163 77 702V702C77 710.837 69.8366 718 61 718H29C20.1634 718 13 710.837 13 702V702Z"/>
</mask>
<path d="M13 702C13 693.163 20.1634 686 29 686H61C69.8366 686 77 693.163 77 702V702C77 710.837 69.8366 718 61 718H29C20.1634 718 13 710.837 13 702V702Z" fill="#29424D"/>
<path d="M29 686V687H61V686V685H29V686ZM61 718V717H29V718V719H61V718ZM29 718V717C20.7157 717 14 710.284 14 702H13H12C12 711.389 19.6112 719 29 719V718ZM77 702H76C76 710.284 69.2843 717 61 717V718V719C70.3888 719 78 711.389 78 702H77ZM61 686V687C69.2843 687 76 693.716 76 702H77H78C78 692.611 70.3888 685 61 685V686ZM29 686V685C19.6112 685 12 692.611 12 702H13H14C14 693.716 20.7157 687 29 687V686Z" fill="#29424D" mask="url(#path-4-inside-1_1904_4003)"/>
<path d="M37.8115 697.047V707H36.4854L31.4746 699.323V707H30.1553V697.047H31.4746L36.5059 704.744V697.047H37.8115ZM43.0273 707.137C42.5124 707.137 42.0452 707.05 41.626 706.877C41.2113 706.699 40.8535 706.451 40.5527 706.132C40.2565 705.813 40.0286 705.435 39.8691 704.997C39.7096 704.56 39.6299 704.081 39.6299 703.562V703.274C39.6299 702.673 39.7188 702.137 39.8965 701.668C40.0742 701.194 40.3158 700.793 40.6211 700.465C40.9264 700.137 41.2728 699.888 41.6602 699.72C42.0475 699.551 42.4486 699.467 42.8633 699.467C43.3919 699.467 43.8477 699.558 44.2305 699.74C44.6178 699.923 44.9346 700.178 45.1807 700.506C45.4268 700.829 45.609 701.212 45.7275 701.654C45.846 702.092 45.9053 702.57 45.9053 703.09V703.657H40.3818V702.625H44.6406V702.529C44.6224 702.201 44.554 701.882 44.4355 701.572C44.3216 701.262 44.1393 701.007 43.8887 700.807C43.638 700.606 43.2962 700.506 42.8633 700.506C42.5762 700.506 42.3118 700.567 42.0703 700.69C41.8288 700.809 41.6214 700.987 41.4482 701.224C41.2751 701.461 41.1406 701.75 41.0449 702.092C40.9492 702.434 40.9014 702.828 40.9014 703.274V703.562C40.9014 703.912 40.9492 704.243 41.0449 704.553C41.1452 704.858 41.2887 705.127 41.4756 705.359C41.667 705.592 41.8971 705.774 42.166 705.906C42.4395 706.038 42.7493 706.104 43.0957 706.104C43.5423 706.104 43.9206 706.013 44.2305 705.831C44.5404 705.649 44.8115 705.405 45.0439 705.1L45.8096 705.708C45.6501 705.95 45.4473 706.18 45.2012 706.398C44.9551 706.617 44.652 706.795 44.292 706.932C43.9365 707.068 43.515 707.137 43.0273 707.137ZM50.3418 706.098C50.6426 706.098 50.9206 706.036 51.1758 705.913C51.431 705.79 51.6406 705.621 51.8047 705.407C51.9688 705.188 52.0622 704.94 52.085 704.662H53.2881C53.2653 705.1 53.1172 705.507 52.8438 705.886C52.5749 706.259 52.2217 706.562 51.7842 706.795C51.3467 707.023 50.8659 707.137 50.3418 707.137C49.7858 707.137 49.3005 707.039 48.8857 706.843C48.4756 706.647 48.1338 706.378 47.8604 706.036C47.5915 705.694 47.3887 705.302 47.252 704.86C47.1198 704.414 47.0537 703.942 47.0537 703.445V703.158C47.0537 702.661 47.1198 702.192 47.252 701.75C47.3887 701.303 47.5915 700.909 47.8604 700.567C48.1338 700.226 48.4756 699.957 48.8857 699.761C49.3005 699.565 49.7858 699.467 50.3418 699.467C50.9206 699.467 51.4264 699.585 51.8594 699.822C52.2923 700.055 52.6318 700.374 52.8779 700.779C53.1286 701.18 53.2653 701.636 53.2881 702.146H52.085C52.0622 701.841 51.9756 701.565 51.8252 701.319C51.6794 701.073 51.4788 700.877 51.2236 700.731C50.973 700.581 50.679 700.506 50.3418 700.506C49.9544 700.506 49.6286 700.583 49.3643 700.738C49.1045 700.889 48.8971 701.094 48.7422 701.354C48.5918 701.609 48.4824 701.894 48.4141 702.208C48.3503 702.518 48.3184 702.835 48.3184 703.158V703.445C48.3184 703.769 48.3503 704.088 48.4141 704.402C48.4779 704.717 48.585 705.002 48.7354 705.257C48.8903 705.512 49.0977 705.717 49.3574 705.872C49.6217 706.022 49.9499 706.098 50.3418 706.098ZM55.9814 696.5V707H54.71V696.5H55.9814ZM60.5 699.604L57.2734 703.056L55.4688 704.929L55.3662 703.582L56.6582 702.037L58.9551 699.604H60.5ZM59.3447 707L56.7061 703.473L57.3623 702.345L60.835 707H59.3447Z" fill="#F8F8F8"/>
<rect x="82.5" y="686.5" width="104" height="31" rx="15.5" fill="#FFFEFE"/>
<rect x="82.5" y="686.5" width="104" height="31" rx="15.5" stroke="#29424D" stroke-linecap="round"/>
<path d="M105.191 705.927V707H100.215V705.927H105.191ZM100.475 697.047V707H99.1553V697.047H100.475ZM106.176 703.384V703.227C106.176 702.693 106.253 702.199 106.408 701.743C106.563 701.283 106.786 700.884 107.078 700.547C107.37 700.205 107.723 699.941 108.138 699.754C108.552 699.562 109.017 699.467 109.532 699.467C110.052 699.467 110.519 699.562 110.934 699.754C111.353 699.941 111.708 700.205 112 700.547C112.296 700.884 112.522 701.283 112.677 701.743C112.832 702.199 112.909 702.693 112.909 703.227V703.384C112.909 703.917 112.832 704.411 112.677 704.867C112.522 705.323 112.296 705.722 112 706.063C111.708 706.401 111.355 706.665 110.94 706.856C110.53 707.043 110.065 707.137 109.546 707.137C109.026 707.137 108.559 707.043 108.145 706.856C107.73 706.665 107.374 706.401 107.078 706.063C106.786 705.722 106.563 705.323 106.408 704.867C106.253 704.411 106.176 703.917 106.176 703.384ZM107.44 703.227V703.384C107.44 703.753 107.484 704.102 107.57 704.43C107.657 704.753 107.787 705.04 107.96 705.291C108.138 705.542 108.359 705.74 108.623 705.886C108.887 706.027 109.195 706.098 109.546 706.098C109.892 706.098 110.195 706.027 110.455 705.886C110.719 705.74 110.938 705.542 111.111 705.291C111.285 705.04 111.414 704.753 111.501 704.43C111.592 704.102 111.638 703.753 111.638 703.384V703.227C111.638 702.862 111.592 702.518 111.501 702.194C111.414 701.866 111.282 701.577 111.104 701.326C110.931 701.071 110.713 700.87 110.448 700.725C110.188 700.579 109.883 700.506 109.532 700.506C109.186 700.506 108.881 700.579 108.616 700.725C108.356 700.87 108.138 701.071 107.96 701.326C107.787 701.577 107.657 701.866 107.57 702.194C107.484 702.518 107.44 702.862 107.44 703.227ZM116.368 705.688L118.269 699.604H119.103L118.938 700.813L117.004 707H116.19L116.368 705.688ZM115.09 699.604L116.71 705.756L116.826 707H115.972L113.825 699.604H115.09ZM120.921 705.708L122.466 699.604H123.724L121.577 707H120.729L120.921 705.708ZM119.287 699.604L121.146 705.585L121.358 707H120.552L118.562 700.8L118.398 699.604H119.287ZM128.092 707.137C127.577 707.137 127.11 707.05 126.69 706.877C126.276 706.699 125.918 706.451 125.617 706.132C125.321 705.813 125.093 705.435 124.934 704.997C124.774 704.56 124.694 704.081 124.694 703.562V703.274C124.694 702.673 124.783 702.137 124.961 701.668C125.139 701.194 125.38 700.793 125.686 700.465C125.991 700.137 126.337 699.888 126.725 699.72C127.112 699.551 127.513 699.467 127.928 699.467C128.456 699.467 128.912 699.558 129.295 699.74C129.682 699.923 129.999 700.178 130.245 700.506C130.491 700.829 130.674 701.212 130.792 701.654C130.91 702.092 130.97 702.57 130.97 703.09V703.657H125.446V702.625H129.705V702.529C129.687 702.201 129.618 701.882 129.5 701.572C129.386 701.262 129.204 701.007 128.953 700.807C128.702 700.606 128.361 700.506 127.928 700.506C127.641 700.506 127.376 700.567 127.135 700.69C126.893 700.809 126.686 700.987 126.513 701.224C126.34 701.461 126.205 701.75 126.109 702.092C126.014 702.434 125.966 702.828 125.966 703.274V703.562C125.966 703.912 126.014 704.243 126.109 704.553C126.21 704.858 126.353 705.127 126.54 705.359C126.731 705.592 126.962 705.774 127.23 705.906C127.504 706.038 127.814 706.104 128.16 706.104C128.607 706.104 128.985 706.013 129.295 705.831C129.605 705.649 129.876 705.405 130.108 705.1L130.874 705.708C130.715 705.95 130.512 706.18 130.266 706.398C130.02 706.617 129.716 706.795 129.356 706.932C129.001 707.068 128.579 707.137 128.092 707.137ZM133.711 700.766V707H132.446V699.604H133.677L133.711 700.766ZM136.021 699.562L136.015 700.738C135.91 700.715 135.81 700.702 135.714 700.697C135.623 700.688 135.518 700.684 135.399 700.684C135.108 700.684 134.85 700.729 134.627 700.82C134.404 700.911 134.215 701.039 134.06 701.203C133.905 701.367 133.782 701.563 133.69 701.791C133.604 702.014 133.547 702.26 133.52 702.529L133.164 702.734C133.164 702.288 133.207 701.868 133.294 701.477C133.385 701.085 133.524 700.738 133.711 700.438C133.898 700.132 134.135 699.895 134.422 699.727C134.714 699.553 135.06 699.467 135.461 699.467C135.552 699.467 135.657 699.478 135.775 699.501C135.894 699.519 135.976 699.54 136.021 699.562ZM144.402 702.345H141.88L141.866 701.285H144.156C144.535 701.285 144.865 701.221 145.147 701.094C145.43 700.966 145.649 700.784 145.804 700.547C145.963 700.305 146.043 700.018 146.043 699.686C146.043 699.321 145.972 699.025 145.831 698.797C145.694 698.564 145.482 698.396 145.195 698.291C144.913 698.182 144.553 698.127 144.115 698.127H142.174V707H140.854V697.047H144.115C144.626 697.047 145.081 697.099 145.482 697.204C145.883 697.304 146.223 697.464 146.501 697.683C146.784 697.897 146.998 698.17 147.144 698.503C147.289 698.836 147.362 699.234 147.362 699.699C147.362 700.109 147.257 700.481 147.048 700.813C146.838 701.142 146.547 701.41 146.173 701.62C145.804 701.83 145.371 701.964 144.874 702.023L144.402 702.345ZM144.341 707H141.36L142.105 705.927H144.341C144.76 705.927 145.116 705.854 145.407 705.708C145.703 705.562 145.929 705.357 146.084 705.093C146.239 704.824 146.316 704.507 146.316 704.143C146.316 703.773 146.25 703.454 146.118 703.186C145.986 702.917 145.779 702.709 145.496 702.563C145.214 702.418 144.849 702.345 144.402 702.345H142.522L142.536 701.285H145.106L145.387 701.668C145.865 701.709 146.271 701.846 146.604 702.078C146.936 702.306 147.189 702.598 147.362 702.953C147.54 703.309 147.629 703.701 147.629 704.129C147.629 704.749 147.492 705.273 147.219 705.701C146.95 706.125 146.569 706.449 146.077 706.672C145.585 706.891 145.006 707 144.341 707ZM153.747 705.735V701.928C153.747 701.636 153.688 701.383 153.569 701.169C153.455 700.95 153.282 700.782 153.05 700.663C152.817 700.545 152.53 700.485 152.188 700.485C151.869 700.485 151.589 700.54 151.348 700.649C151.111 700.759 150.924 700.902 150.787 701.08C150.655 701.258 150.589 701.449 150.589 701.654H149.324C149.324 701.39 149.393 701.128 149.529 700.868C149.666 700.608 149.862 700.374 150.117 700.164C150.377 699.95 150.687 699.781 151.047 699.658C151.411 699.531 151.817 699.467 152.264 699.467C152.801 699.467 153.275 699.558 153.686 699.74C154.1 699.923 154.424 700.198 154.656 700.567C154.893 700.932 155.012 701.39 155.012 701.941V705.387C155.012 705.633 155.032 705.895 155.073 706.173C155.119 706.451 155.185 706.69 155.271 706.891V707H153.952C153.888 706.854 153.838 706.66 153.802 706.419C153.765 706.173 153.747 705.945 153.747 705.735ZM153.966 702.516L153.979 703.404H152.701C152.341 703.404 152.02 703.434 151.737 703.493C151.455 703.548 151.218 703.632 151.026 703.746C150.835 703.86 150.689 704.004 150.589 704.177C150.489 704.345 150.438 704.544 150.438 704.771C150.438 705.004 150.491 705.216 150.596 705.407C150.701 705.599 150.858 705.751 151.067 705.865C151.282 705.975 151.544 706.029 151.854 706.029C152.241 706.029 152.583 705.947 152.879 705.783C153.175 705.619 153.41 705.419 153.583 705.182C153.761 704.945 153.856 704.715 153.87 704.491L154.41 705.1C154.378 705.291 154.292 705.503 154.15 705.735C154.009 705.968 153.82 706.191 153.583 706.405C153.351 706.615 153.073 706.79 152.749 706.932C152.43 707.068 152.07 707.137 151.669 707.137C151.168 707.137 150.728 707.039 150.35 706.843C149.976 706.647 149.684 706.385 149.475 706.057C149.27 705.724 149.167 705.353 149.167 704.942C149.167 704.546 149.244 704.197 149.399 703.896C149.554 703.591 149.778 703.338 150.069 703.138C150.361 702.933 150.712 702.778 151.122 702.673C151.532 702.568 151.99 702.516 152.496 702.516H153.966ZM159.961 706.098C160.262 706.098 160.54 706.036 160.795 705.913C161.05 705.79 161.26 705.621 161.424 705.407C161.588 705.188 161.681 704.94 161.704 704.662H162.907C162.884 705.1 162.736 705.507 162.463 705.886C162.194 706.259 161.841 706.562 161.403 706.795C160.966 707.023 160.485 707.137 159.961 707.137C159.405 707.137 158.92 707.039 158.505 706.843C158.095 706.647 157.753 706.378 157.479 706.036C157.211 705.694 157.008 705.302 156.871 704.86C156.739 704.414 156.673 703.942 156.673 703.445V703.158C156.673 702.661 156.739 702.192 156.871 701.75C157.008 701.303 157.211 700.909 157.479 700.567C157.753 700.226 158.095 699.957 158.505 699.761C158.92 699.565 159.405 699.467 159.961 699.467C160.54 699.467 161.046 699.585 161.479 699.822C161.911 700.055 162.251 700.374 162.497 700.779C162.748 701.18 162.884 701.636 162.907 702.146H161.704C161.681 701.841 161.595 701.565 161.444 701.319C161.299 701.073 161.098 700.877 160.843 700.731C160.592 700.581 160.298 700.506 159.961 700.506C159.574 700.506 159.248 700.583 158.983 700.738C158.724 700.889 158.516 701.094 158.361 701.354C158.211 701.609 158.102 701.894 158.033 702.208C157.969 702.518 157.938 702.835 157.938 703.158V703.445C157.938 703.769 157.969 704.088 158.033 704.402C158.097 704.717 158.204 705.002 158.354 705.257C158.509 705.512 158.717 705.717 158.977 705.872C159.241 706.022 159.569 706.098 159.961 706.098ZM165.601 696.5V707H164.329V696.5H165.601ZM170.119 699.604L166.893 703.056L165.088 704.929L164.985 703.582L166.277 702.037L168.574 699.604H170.119ZM168.964 707L166.325 703.473L166.981 702.345L170.454 707H168.964Z" fill="#29424D"/>
<rect y="140.547" width="440" height="484.453" rx="24" fill="#FDFBF9"/>
<rect x="82" y="81" width="275" height="40.3711" rx="20.1855" fill="#29424D"/>
<rect x="86" y="85.0371" width="64" height="32.2968" rx="16.1484" fill="#CFC4F4"/>
<path d="M117.255 106.186H115.177L115.19 105.112H117.255C117.966 105.112 118.558 104.964 119.032 104.668C119.506 104.367 119.862 103.948 120.099 103.41C120.34 102.868 120.461 102.234 120.461 101.51V100.901C120.461 100.332 120.393 99.8258 120.256 99.3838C120.119 98.9372 119.919 98.5612 119.654 98.2559C119.39 97.946 119.066 97.7113 118.684 97.5518C118.305 97.3923 117.87 97.3125 117.378 97.3125H115.136V96.2324H117.378C118.03 96.2324 118.624 96.3418 119.162 96.5605C119.7 96.7747 120.162 97.0869 120.55 97.4971C120.942 97.9027 121.243 98.3949 121.452 98.9736C121.662 99.5479 121.767 100.195 121.767 100.915V101.51C121.767 102.23 121.662 102.879 121.452 103.458C121.243 104.032 120.939 104.522 120.543 104.928C120.151 105.333 119.677 105.646 119.121 105.864C118.57 106.078 117.948 106.186 117.255 106.186ZM115.881 96.2324V106.186H114.562V96.2324H115.881Z" fill="#2E2E30"/>
<rect x="153" y="85.0371" width="64" height="32.2968" rx="16.1484" fill="#29424D"/>
<path d="M182.56 103.178L184.535 96.2324H185.492L184.938 98.9326L182.812 106.186H181.862L182.56 103.178ZM180.516 96.2324L182.088 103.041L182.56 106.186H181.616L179.203 96.2324H180.516ZM188.049 103.034L189.587 96.2324H190.906L188.5 106.186H187.557L188.049 103.034ZM185.636 96.2324L187.557 103.178L188.254 106.186H187.304L185.253 98.9326L184.692 96.2324H185.636Z" fill="white"/>
<rect x="220" y="85.0371" width="64" height="32.2968" rx="16.1484" fill="#29424D"/>
<path d="M247.461 96.2324H248.739L252 104.347L255.254 96.2324H256.539L252.492 106.186H251.494L247.461 96.2324ZM247.044 96.2324H248.172L248.356 102.303V106.186H247.044V96.2324ZM255.821 96.2324H256.949V106.186H255.637V102.303L255.821 96.2324Z" fill="white"/>
<rect x="287" y="85.0371" width="64" height="32.2968" rx="16.1484" fill="#29424D"/>
<path d="M314.632 96.2188H314.741V97.292H314.632C313.962 97.292 313.401 97.4014 312.95 97.6201C312.499 97.8343 312.141 98.1237 311.877 98.4883C311.613 98.8483 311.421 99.2539 311.303 99.7051C311.189 100.156 311.132 100.614 311.132 101.079V102.542C311.132 102.984 311.184 103.376 311.289 103.718C311.394 104.055 311.537 104.34 311.72 104.572C311.902 104.805 312.107 104.98 312.335 105.099C312.567 105.217 312.809 105.276 313.06 105.276C313.351 105.276 313.611 105.222 313.839 105.112C314.067 104.998 314.258 104.841 314.413 104.641C314.573 104.436 314.693 104.194 314.775 103.916C314.857 103.638 314.898 103.333 314.898 103C314.898 102.704 314.862 102.419 314.789 102.146C314.716 101.868 314.604 101.621 314.454 101.407C314.304 101.188 314.115 101.018 313.887 100.895C313.663 100.767 313.397 100.703 313.087 100.703C312.736 100.703 312.408 100.79 312.103 100.963C311.802 101.132 311.553 101.355 311.357 101.633C311.166 101.906 311.057 102.205 311.029 102.528L310.359 102.521C310.423 102.011 310.542 101.576 310.715 101.216C310.893 100.851 311.111 100.555 311.371 100.327C311.635 100.095 311.929 99.9261 312.253 99.8213C312.581 99.7119 312.927 99.6572 313.292 99.6572C313.789 99.6572 314.217 99.7507 314.577 99.9375C314.937 100.124 315.233 100.375 315.466 100.689C315.698 100.999 315.869 101.35 315.979 101.742C316.092 102.13 316.149 102.528 316.149 102.938C316.149 103.408 316.083 103.848 315.951 104.258C315.819 104.668 315.621 105.028 315.356 105.338C315.097 105.648 314.775 105.889 314.393 106.062C314.01 106.236 313.565 106.322 313.06 106.322C312.522 106.322 312.052 106.213 311.651 105.994C311.25 105.771 310.918 105.475 310.653 105.105C310.389 104.736 310.191 104.326 310.059 103.875C309.926 103.424 309.86 102.966 309.86 102.501V101.906C309.86 101.204 309.931 100.516 310.072 99.8418C310.214 99.1673 310.457 98.5566 310.804 98.0098C311.155 97.4629 311.64 97.0277 312.26 96.7041C312.88 96.3805 313.67 96.2188 314.632 96.2188ZM318.398 96.2324H319.677L322.938 104.347L326.191 96.2324H327.477L323.43 106.186H322.432L318.398 96.2324ZM317.981 96.2324H319.109L319.294 102.303V106.186H317.981V96.2324ZM326.759 96.2324H327.887V106.186H326.574V102.303L326.759 96.2324Z" fill="white"/>
<line x1="17" y1="605.324" x2="423" y2="605.324" stroke="#EAECED"/>
<line x1="17" y1="205.65" x2="423" y2="205.65" stroke="#EAECED"/>
<line x1="17" y1="516.507" x2="423" y2="516.507" stroke="#EAECED"/>
<line x1="17" y1="560.916" x2="423" y2="560.916" stroke="#EAECED"/>
<line x1="17" y1="472.099" x2="423" y2="472.099" stroke="#EAECED"/>
<line x1="17" y1="427.691" x2="423" y2="427.691" stroke="#EAECED"/>
<line x1="17" y1="383.283" x2="423" y2="383.283" stroke="#EAECED"/>
<line x1="17" y1="338.875" x2="423" y2="338.875" stroke="#EAECED"/>
<line x1="17" y1="294.467" x2="423" y2="294.467" stroke="#EAECED"/>
<line x1="17" y1="250.058" x2="423" y2="250.058" stroke="#EAECED"/>
<line x1="422.5" y1="605.824" x2="422.5" y2="161.742" stroke="#EAECED"/>
<line x1="377.5" y1="605.824" x2="377.5" y2="161.742" stroke="#EAECED"/>
<line x1="332.5" y1="605.824" x2="332.5" y2="161.742" stroke="#EAECED"/>
<line x1="287.5" y1="605.824" x2="287.5" y2="161.742" stroke="#EAECED"/>
<line x1="242.5" y1="605.824" x2="242.5" y2="161.742" stroke="#EAECED"/>
<line x1="197.5" y1="605.824" x2="197.5" y2="161.742" stroke="#EAECED"/>
<line x1="152.5" y1="605.824" x2="152.5" y2="161.742" stroke="#EAECED"/>
<line x1="107.5" y1="605.824" x2="107.5" y2="161.742" stroke="#EAECED"/>
<line x1="62.5" y1="605.824" x2="62.5" y2="161.742" stroke="#EAECED"/>
<line x1="17.5" y1="605.824" x2="17.5" y2="161.742" stroke="#EAECED"/>
<path d="M377 561.416L423 605.319H17V471.59L64 515.998L107.5 471.59L153.5 382.269L197.5 338.87L244 471.59L288.5 515.998L333.5 561.416H377Z" fill="url(#paint0_linear_1904_4003)" fill-opacity="0.5"/>
<path d="M423 605.319L377 561.416H333.5L288.5 515.998L244 471.59L197.5 338.87L153.5 382.269L107.5 471.59L64 515.998L17 471.59" stroke="#29424D"/>
<ellipse cx="198" cy="338.365" rx="4" ry="4.0371" fill="#29424D"/>
<ellipse cx="153" cy="381.764" rx="4" ry="4.03711" fill="#29424D"/>
<ellipse cx="108" cy="472.599" rx="4" ry="4.03711" fill="#29424D"/>
<ellipse cx="63" cy="515.998" rx="4" ry="4.03711" fill="#29424D"/>
<ellipse cx="17" cy="472.599" rx="4" ry="4.03711" fill="#29424D"/>
<ellipse cx="243" cy="470.581" rx="4" ry="4.03711" fill="#29424D"/>
<ellipse cx="333" cy="561.416" rx="4" ry="4.03711" fill="#29424D"/>
<ellipse cx="378" cy="561.416" rx="4" ry="4.03711" fill="#29424D"/>
<ellipse cx="423" cy="605.824" rx="4" ry="4.03711" fill="#29424D"/>
<g opacity="0.2">
<path d="M20.0752 601.23V602.748C20.0752 603.564 20.0023 604.252 19.8564 604.812C19.7106 605.373 19.501 605.824 19.2275 606.166C18.9541 606.508 18.6237 606.756 18.2363 606.911C17.8535 607.062 17.4206 607.137 16.9375 607.137C16.5547 607.137 16.2015 607.089 15.8779 606.993C15.5544 606.897 15.2627 606.745 15.0029 606.535C14.7477 606.321 14.529 606.043 14.3467 605.701C14.1644 605.359 14.0254 604.945 13.9297 604.457C13.834 603.969 13.7861 603.4 13.7861 602.748V601.23C13.7861 600.415 13.859 599.731 14.0049 599.18C14.1553 598.628 14.3672 598.186 14.6406 597.854C14.9141 597.516 15.2422 597.275 15.625 597.129C16.0124 596.983 16.4453 596.91 16.9238 596.91C17.3112 596.91 17.6667 596.958 17.9902 597.054C18.3184 597.145 18.61 597.293 18.8652 597.498C19.1204 597.699 19.3369 597.967 19.5146 598.305C19.6969 598.637 19.8359 599.045 19.9316 599.528C20.0273 600.011 20.0752 600.579 20.0752 601.23ZM18.8037 602.953V601.019C18.8037 600.572 18.7764 600.18 18.7217 599.843C18.6715 599.501 18.5964 599.209 18.4961 598.968C18.3958 598.726 18.2682 598.53 18.1133 598.38C17.9629 598.229 17.7874 598.12 17.5869 598.052C17.391 597.979 17.1699 597.942 16.9238 597.942C16.623 597.942 16.3564 597.999 16.124 598.113C15.8916 598.223 15.6956 598.398 15.5361 598.64C15.3812 598.881 15.2627 599.198 15.1807 599.59C15.0986 599.982 15.0576 600.458 15.0576 601.019V602.953C15.0576 603.4 15.0827 603.794 15.1328 604.136C15.1875 604.478 15.2673 604.774 15.3721 605.024C15.4769 605.271 15.6045 605.473 15.7549 605.633C15.9053 605.792 16.0785 605.911 16.2744 605.988C16.4749 606.061 16.696 606.098 16.9375 606.098C17.2474 606.098 17.5186 606.038 17.751 605.92C17.9834 605.801 18.1771 605.617 18.332 605.366C18.4915 605.111 18.61 604.785 18.6875 604.389C18.765 603.988 18.8037 603.509 18.8037 602.953Z" fill="#29424D"/>
<path d="M17.9834 553.992V564H16.7188V555.571L14.1689 556.501V555.359L17.7852 553.992H17.9834Z" fill="#29424D"/>
<path d="M15.4268 380.263L14.415 380.003L14.9141 375.047H20.0205V376.216H15.9873L15.6865 378.923C15.8688 378.818 16.099 378.72 16.377 378.629C16.6595 378.538 16.9831 378.492 17.3477 378.492C17.8079 378.492 18.2204 378.572 18.585 378.731C18.9495 378.886 19.2594 379.11 19.5146 379.401C19.7744 379.693 19.9727 380.044 20.1094 380.454C20.2461 380.864 20.3145 381.322 20.3145 381.828C20.3145 382.307 20.2484 382.746 20.1162 383.147C19.9886 383.549 19.7949 383.899 19.5352 384.2C19.2754 384.496 18.9473 384.727 18.5508 384.891C18.1589 385.055 17.6963 385.137 17.1631 385.137C16.762 385.137 16.3815 385.082 16.0215 384.973C15.666 384.859 15.347 384.688 15.0645 384.46C14.7865 384.228 14.5586 383.94 14.3809 383.599C14.2077 383.252 14.0983 382.847 14.0527 382.382H15.2559C15.3105 382.756 15.4199 383.07 15.584 383.325C15.748 383.58 15.9622 383.774 16.2266 383.906C16.4954 384.034 16.8076 384.098 17.1631 384.098C17.4639 384.098 17.7305 384.045 17.9629 383.94C18.1953 383.836 18.3913 383.685 18.5508 383.489C18.7103 383.293 18.8311 383.056 18.9131 382.778C18.9997 382.5 19.043 382.188 19.043 381.842C19.043 381.527 18.9997 381.236 18.9131 380.967C18.8265 380.698 18.6966 380.463 18.5234 380.263C18.3548 380.062 18.1475 379.907 17.9014 379.798C17.6553 379.684 17.3727 379.627 17.0537 379.627C16.6299 379.627 16.3086 379.684 16.0898 379.798C15.8757 379.912 15.6546 380.067 15.4268 380.263Z" fill="#29424D"/>
<path d="M20.3486 518.961V520H13.834V519.091L17.0947 515.461C17.4958 515.014 17.8057 514.636 18.0244 514.326C18.2477 514.012 18.4027 513.731 18.4893 513.485C18.5804 513.235 18.626 512.979 18.626 512.72C18.626 512.392 18.5576 512.095 18.4209 511.831C18.2887 511.562 18.0928 511.348 17.833 511.188C17.5732 511.029 17.2588 510.949 16.8896 510.949C16.4476 510.949 16.0785 511.036 15.7822 511.209C15.4906 511.378 15.2718 511.615 15.126 511.92C14.9801 512.225 14.9072 512.576 14.9072 512.973H13.6426C13.6426 512.412 13.7656 511.899 14.0117 511.435C14.2578 510.97 14.6224 510.601 15.1055 510.327C15.5885 510.049 16.1833 509.91 16.8896 509.91C17.5186 509.91 18.0563 510.022 18.5029 510.245C18.9495 510.464 19.2913 510.774 19.5283 511.175C19.7699 511.571 19.8906 512.036 19.8906 512.569C19.8906 512.861 19.8405 513.157 19.7402 513.458C19.6445 513.754 19.5101 514.05 19.3369 514.347C19.1683 514.643 18.9701 514.935 18.7422 515.222C18.5189 515.509 18.2796 515.791 18.0244 516.069L15.3584 518.961H20.3486Z" fill="#29424D"/>
<path d="M18.6807 331.033H18.79V332.106H18.6807C18.0107 332.106 17.4502 332.216 16.999 332.435C16.5479 332.649 16.1901 332.938 15.9258 333.303C15.6615 333.663 15.4701 334.068 15.3516 334.52C15.2376 334.971 15.1807 335.429 15.1807 335.894V337.356C15.1807 337.799 15.2331 338.19 15.3379 338.532C15.4427 338.869 15.5863 339.154 15.7686 339.387C15.9508 339.619 16.1559 339.795 16.3838 339.913C16.6162 340.032 16.8577 340.091 17.1084 340.091C17.4001 340.091 17.6598 340.036 17.8877 339.927C18.1156 339.813 18.307 339.656 18.4619 339.455C18.6214 339.25 18.7422 339.008 18.8242 338.73C18.9062 338.452 18.9473 338.147 18.9473 337.814C18.9473 337.518 18.9108 337.233 18.8379 336.96C18.765 336.682 18.6533 336.436 18.5029 336.222C18.3525 336.003 18.1634 335.832 17.9355 335.709C17.7122 335.581 17.4456 335.518 17.1357 335.518C16.7848 335.518 16.4567 335.604 16.1514 335.777C15.8506 335.946 15.6022 336.169 15.4062 336.447C15.2148 336.721 15.1055 337.019 15.0781 337.343L14.4082 337.336C14.472 336.826 14.5905 336.39 14.7637 336.03C14.9414 335.666 15.1602 335.369 15.4199 335.142C15.6842 334.909 15.9782 334.741 16.3018 334.636C16.6299 334.526 16.9762 334.472 17.3408 334.472C17.8376 334.472 18.266 334.565 18.626 334.752C18.986 334.939 19.2822 335.189 19.5146 335.504C19.7471 335.814 19.918 336.165 20.0273 336.557C20.1413 336.944 20.1982 337.343 20.1982 337.753C20.1982 338.222 20.1322 338.662 20 339.072C19.8678 339.482 19.6696 339.842 19.4053 340.152C19.1455 340.462 18.8242 340.704 18.4414 340.877C18.0586 341.05 17.6143 341.137 17.1084 341.137C16.5706 341.137 16.1012 341.027 15.7002 340.809C15.2992 340.585 14.9665 340.289 14.7021 339.92C14.4378 339.551 14.2396 339.141 14.1074 338.689C13.9753 338.238 13.9092 337.78 13.9092 337.315V336.721C13.9092 336.019 13.9798 335.331 14.1211 334.656C14.2624 333.982 14.5062 333.371 14.8525 332.824C15.2035 332.277 15.6888 331.842 16.3086 331.519C16.9284 331.195 17.7191 331.033 18.6807 331.033Z" fill="#29424D"/>
<path d="M15.6729 469.401H16.5752C17.0173 469.401 17.3818 469.328 17.6689 469.183C17.9606 469.032 18.1771 468.829 18.3184 468.574C18.4642 468.314 18.5371 468.023 18.5371 467.699C18.5371 467.316 18.4733 466.995 18.3457 466.735C18.2181 466.476 18.0267 466.28 17.7715 466.147C17.5163 466.015 17.1927 465.949 16.8008 465.949C16.4453 465.949 16.1309 466.02 15.8574 466.161C15.5885 466.298 15.3766 466.494 15.2217 466.749C15.0713 467.004 14.9961 467.305 14.9961 467.651H13.7314C13.7314 467.146 13.859 466.685 14.1143 466.271C14.3695 465.856 14.7272 465.525 15.1875 465.279C15.6523 465.033 16.1901 464.91 16.8008 464.91C17.4023 464.91 17.9287 465.017 18.3799 465.231C18.8311 465.441 19.182 465.756 19.4326 466.175C19.6833 466.59 19.8086 467.107 19.8086 467.727C19.8086 467.977 19.7493 468.246 19.6309 468.533C19.5169 468.816 19.3369 469.08 19.0908 469.326C18.8493 469.572 18.5348 469.775 18.1475 469.935C17.7601 470.09 17.2952 470.167 16.7529 470.167H15.6729V469.401ZM15.6729 470.44V469.682H16.7529C17.3864 469.682 17.9105 469.757 18.3252 469.907C18.7399 470.058 19.0658 470.258 19.3027 470.509C19.5443 470.759 19.7129 471.035 19.8086 471.336C19.9089 471.632 19.959 471.928 19.959 472.225C19.959 472.689 19.8792 473.102 19.7197 473.462C19.5648 473.822 19.3438 474.127 19.0566 474.378C18.7741 474.629 18.4414 474.818 18.0586 474.945C17.6758 475.073 17.2588 475.137 16.8076 475.137C16.3747 475.137 15.9668 475.075 15.584 474.952C15.2057 474.829 14.8708 474.651 14.5791 474.419C14.2874 474.182 14.0596 473.893 13.8955 473.551C13.7314 473.204 13.6494 472.81 13.6494 472.368H14.9141C14.9141 472.715 14.9893 473.018 15.1396 473.277C15.2946 473.537 15.5133 473.74 15.7959 473.886C16.083 474.027 16.4202 474.098 16.8076 474.098C17.195 474.098 17.5277 474.032 17.8057 473.899C18.0882 473.763 18.3047 473.558 18.4551 473.284C18.61 473.011 18.6875 472.667 18.6875 472.252C18.6875 471.837 18.6009 471.498 18.4277 471.233C18.2546 470.965 18.0085 470.766 17.6895 470.639C17.375 470.507 17.0036 470.44 16.5752 470.44H15.6729Z" fill="#29424D"/>
<path d="M20.2598 286.047V286.758L16.1377 296H14.8047L18.9199 287.086H13.5332V286.047H20.2598Z" fill="#29424D"/>
<path d="M15.085 208.94H15.2148C15.944 208.94 16.5365 208.838 16.9922 208.633C17.4479 208.428 17.7988 208.152 18.0449 207.806C18.291 207.459 18.4596 207.07 18.5508 206.637C18.6419 206.199 18.6875 205.75 18.6875 205.29V203.766C18.6875 203.314 18.6351 202.913 18.5303 202.562C18.43 202.212 18.2887 201.918 18.1064 201.681C17.9287 201.444 17.7259 201.264 17.498 201.141C17.2702 201.018 17.0286 200.956 16.7734 200.956C16.4818 200.956 16.2197 201.015 15.9873 201.134C15.7594 201.248 15.5658 201.41 15.4062 201.619C15.2513 201.829 15.1328 202.075 15.0508 202.357C14.9688 202.64 14.9277 202.948 14.9277 203.28C14.9277 203.576 14.9642 203.864 15.0371 204.142C15.11 204.42 15.2217 204.67 15.3721 204.894C15.5225 205.117 15.7093 205.295 15.9326 205.427C16.1605 205.554 16.4271 205.618 16.7324 205.618C17.015 205.618 17.2793 205.563 17.5254 205.454C17.776 205.34 17.9971 205.188 18.1885 204.996C18.3844 204.8 18.5394 204.579 18.6533 204.333C18.7718 204.087 18.8402 203.829 18.8584 203.561H19.46C19.46 203.939 19.3848 204.312 19.2344 204.682C19.0885 205.046 18.8835 205.379 18.6191 205.68C18.3548 205.98 18.0449 206.222 17.6895 206.404C17.334 206.582 16.9466 206.671 16.5273 206.671C16.0352 206.671 15.609 206.575 15.249 206.384C14.889 206.192 14.5928 205.937 14.3604 205.618C14.1325 205.299 13.9616 204.944 13.8477 204.552C13.7383 204.155 13.6836 203.754 13.6836 203.349C13.6836 202.875 13.7497 202.43 13.8818 202.016C14.014 201.601 14.21 201.236 14.4697 200.922C14.7295 200.603 15.0508 200.354 15.4336 200.177C15.821 199.999 16.2676 199.91 16.7734 199.91C17.3431 199.91 17.8285 200.024 18.2295 200.252C18.6305 200.48 18.9564 200.785 19.207 201.168C19.4622 201.551 19.6491 201.981 19.7676 202.46C19.8861 202.938 19.9453 203.431 19.9453 203.937V204.395C19.9453 204.91 19.9111 205.434 19.8428 205.967C19.779 206.495 19.6536 207.001 19.4668 207.484C19.2845 207.967 19.0179 208.4 18.667 208.783C18.3161 209.161 17.8581 209.462 17.293 209.686C16.7324 209.904 16.0397 210.014 15.2148 210.014H15.085V208.94Z" fill="#29424D"/>
<path d="M20.5537 428.65V429.689H13.3623V428.944L17.8193 422.047H18.8516L17.7441 424.043L14.7979 428.65H20.5537ZM19.166 422.047V432H17.9014V422.047H19.166Z" fill="#29424D"/>
<path d="M20.1025 250.307C20.1025 250.913 19.9613 251.428 19.6787 251.852C19.4007 252.271 19.0225 252.59 18.5439 252.809C18.07 253.027 17.5345 253.137 16.9375 253.137C16.3405 253.137 15.8027 253.027 15.3242 252.809C14.8457 252.59 14.4674 252.271 14.1895 251.852C13.9115 251.428 13.7725 250.913 13.7725 250.307C13.7725 249.91 13.8477 249.548 13.998 249.22C14.153 248.887 14.3695 248.598 14.6475 248.352C14.93 248.105 15.2627 247.916 15.6455 247.784C16.0329 247.647 16.459 247.579 16.9238 247.579C17.5345 247.579 18.0791 247.698 18.5576 247.935C19.0361 248.167 19.4121 248.488 19.6855 248.898C19.9635 249.309 20.1025 249.778 20.1025 250.307ZM18.8311 250.279C18.8311 249.91 18.7513 249.584 18.5918 249.302C18.4323 249.015 18.209 248.791 17.9219 248.632C17.6348 248.472 17.3021 248.393 16.9238 248.393C16.5365 248.393 16.2015 248.472 15.9189 248.632C15.641 248.791 15.4245 249.015 15.2695 249.302C15.1146 249.584 15.0371 249.91 15.0371 250.279C15.0371 250.662 15.1123 250.99 15.2627 251.264C15.4176 251.533 15.6364 251.74 15.9189 251.886C16.2061 252.027 16.5456 252.098 16.9375 252.098C17.3294 252.098 17.6667 252.027 17.9492 251.886C18.2318 251.74 18.4482 251.533 18.5986 251.264C18.7536 250.99 18.8311 250.662 18.8311 250.279ZM19.8701 245.638C19.8701 246.121 19.7425 246.556 19.4873 246.943C19.2321 247.331 18.8835 247.636 18.4414 247.859C17.9993 248.083 17.498 248.194 16.9375 248.194C16.3678 248.194 15.8597 248.083 15.4131 247.859C14.971 247.636 14.6247 247.331 14.374 246.943C14.1234 246.556 13.998 246.121 13.998 245.638C13.998 245.059 14.1234 244.567 14.374 244.161C14.6292 243.756 14.9779 243.446 15.4199 243.231C15.862 243.017 16.3656 242.91 16.9307 242.91C17.5003 242.91 18.0062 243.017 18.4482 243.231C18.8903 243.446 19.2367 243.756 19.4873 244.161C19.7425 244.567 19.8701 245.059 19.8701 245.638ZM18.6055 245.658C18.6055 245.326 18.5348 245.032 18.3936 244.776C18.2523 244.521 18.0563 244.321 17.8057 244.175C17.555 244.024 17.2633 243.949 16.9307 243.949C16.598 243.949 16.3063 244.02 16.0557 244.161C15.8096 244.298 15.6159 244.494 15.4746 244.749C15.3379 245.004 15.2695 245.307 15.2695 245.658C15.2695 246 15.3379 246.299 15.4746 246.554C15.6159 246.809 15.8118 247.007 16.0625 247.148C16.3132 247.29 16.6048 247.36 16.9375 247.36C17.2702 247.36 17.5596 247.29 17.8057 247.148C18.0563 247.007 18.2523 246.809 18.3936 246.554C18.5348 246.299 18.6055 246 18.6055 245.658Z" fill="#29424D"/>
<path d="M17.9834 156.992V167H16.7188V158.571L14.1689 159.501V158.359L17.7852 156.992H17.9834ZM27.9502 161.23V162.748C27.9502 163.564 27.8773 164.252 27.7314 164.812C27.5856 165.373 27.376 165.824 27.1025 166.166C26.8291 166.508 26.4987 166.756 26.1113 166.911C25.7285 167.062 25.2956 167.137 24.8125 167.137C24.4297 167.137 24.0765 167.089 23.7529 166.993C23.4294 166.897 23.1377 166.745 22.8779 166.535C22.6227 166.321 22.404 166.043 22.2217 165.701C22.0394 165.359 21.9004 164.945 21.8047 164.457C21.709 163.969 21.6611 163.4 21.6611 162.748V161.23C21.6611 160.415 21.734 159.731 21.8799 159.18C22.0303 158.628 22.2422 158.186 22.5156 157.854C22.7891 157.516 23.1172 157.275 23.5 157.129C23.8874 156.983 24.3203 156.91 24.7988 156.91C25.1862 156.91 25.5417 156.958 25.8652 157.054C26.1934 157.145 26.485 157.293 26.7402 157.498C26.9954 157.699 27.2119 157.967 27.3896 158.305C27.5719 158.637 27.7109 159.045 27.8066 159.528C27.9023 160.011 27.9502 160.579 27.9502 161.23ZM26.6787 162.953V161.019C26.6787 160.572 26.6514 160.18 26.5967 159.843C26.5465 159.501 26.4714 159.209 26.3711 158.968C26.2708 158.726 26.1432 158.53 25.9883 158.38C25.8379 158.229 25.6624 158.12 25.4619 158.052C25.266 157.979 25.0449 157.942 24.7988 157.942C24.498 157.942 24.2314 157.999 23.999 158.113C23.7666 158.223 23.5706 158.398 23.4111 158.64C23.2562 158.881 23.1377 159.198 23.0557 159.59C22.9736 159.982 22.9326 160.458 22.9326 161.019V162.953C22.9326 163.4 22.9577 163.794 23.0078 164.136C23.0625 164.478 23.1423 164.774 23.2471 165.024C23.3519 165.271 23.4795 165.473 23.6299 165.633C23.7803 165.792 23.9535 165.911 24.1494 165.988C24.3499 166.061 24.571 166.098 24.8125 166.098C25.1224 166.098 25.3936 166.038 25.626 165.92C25.8584 165.801 26.0521 165.617 26.207 165.366C26.3665 165.111 26.485 164.785 26.5625 164.389C26.64 163.988 26.6787 163.509 26.6787 162.953Z" fill="#29424D"/>
</g>
<defs>
<linearGradient id="paint0_linear_1904_4003" x1="220" y1="338.87" x2="220" y2="605.319" gradientUnits="userSpaceOnUse">
<stop stop-color="#29424D"/>
<stop offset="1" stop-color="#29424D" stop-opacity="0.2"/>
</linearGradient>
</defs>
</svg>
