<svg width="27" height="27" viewBox="0 0 27 27" fill="none" xmlns="http://www.w3.org/2000/svg">
<path d="M15.7258 14.5343H11.2537C10.9572 14.5343 10.6728 14.6521 10.4631 14.8618C10.2535 15.0715 10.1357 15.3558 10.1357 15.6524C10.1357 15.9489 10.2535 16.2333 10.4631 16.4429C10.6728 16.6526 10.9572 16.7704 11.2537 16.7704H15.7258C16.0224 16.7704 16.3067 16.6526 16.5164 16.4429C16.7261 16.2333 16.8439 15.9489 16.8439 15.6524C16.8439 15.3558 16.7261 15.0715 16.5164 14.8618C16.3067 14.6521 16.0224 14.5343 15.7258 14.5343ZM11.2537 12.2983H12.3717C12.6683 12.2983 12.9526 12.1805 13.1623 11.9708C13.372 11.7611 13.4898 11.4767 13.4898 11.1802C13.4898 10.8837 13.372 10.5993 13.1623 10.3897C12.9526 10.18 12.6683 10.0622 12.3717 10.0622H11.2537C10.9572 10.0622 10.6728 10.18 10.4631 10.3897C10.2535 10.5993 10.1357 10.8837 10.1357 11.1802C10.1357 11.4767 10.2535 11.7611 10.4631 11.9708C10.6728 12.1805 10.9572 12.2983 11.2537 12.2983ZM17.9619 11.1802V10.0622C17.9607 8.87647 17.4892 7.73965 16.6507 6.90122C15.8123 6.06279 14.6755 5.59124 13.4898 5.59006H11.2537C9.77165 5.59183 8.3508 6.18136 7.30283 7.22934C6.25485 8.27731 5.66532 9.69816 5.66354 11.1802V15.6524C5.66532 17.1344 6.25485 18.5553 7.30283 19.6032C8.3508 20.6512 9.77165 21.2408 11.2537 21.2425H15.7258C17.2079 21.2408 18.6288 20.6512 19.6767 19.6032C20.7247 18.5553 21.3142 17.1344 21.316 15.6524V14.5343C21.3145 13.6452 20.9607 12.7929 20.332 12.1643C19.7033 11.5356 18.851 11.1817 17.9619 11.1802ZM19.0799 15.6524C19.0791 16.5417 18.7254 17.3943 18.0966 18.0231C17.4677 18.6519 16.6151 19.0056 15.7258 19.0065H11.2537C10.3644 19.0056 9.51181 18.6519 8.88298 18.0231C8.25416 17.3943 7.9005 16.5417 7.89961 15.6524V11.1802C7.9005 10.2909 8.25416 9.43832 8.88298 8.8095C9.51181 8.18067 10.3644 7.82701 11.2537 7.82612H13.4898C14.0825 7.82701 14.6508 8.06288 15.0699 8.48203C15.4891 8.90118 15.725 9.46942 15.7258 10.0622V11.1802C15.7267 11.773 15.9626 12.3412 16.3818 12.7604C16.8009 13.1795 17.3691 13.4154 17.9619 13.4163C18.2584 13.4163 18.5428 13.5341 18.7525 13.7438C18.9622 13.9534 19.0799 14.2378 19.0799 14.5343V15.6524ZM22.434 1.11792H4.54551C3.65622 1.11881 2.8036 1.47247 2.17478 2.10129C1.54596 2.73012 1.19229 3.58273 1.19141 4.47202V22.3606C1.19229 23.2499 1.54596 24.1025 2.17478 24.7313C2.8036 25.3601 3.65622 25.7138 4.54551 25.7147H22.434C23.3233 25.7138 24.176 25.3601 24.8048 24.7313C25.4336 24.1025 25.7873 23.2499 25.7882 22.3606V4.47202C25.7873 3.58273 25.4336 2.73012 24.8048 2.10129C24.176 1.47247 23.3233 1.11881 22.434 1.11792ZM23.5521 22.3606C23.5521 22.6571 23.4343 22.9415 23.2246 23.1511C23.0149 23.3608 22.7306 23.4786 22.434 23.4786H4.54551C4.24899 23.4786 3.96461 23.3608 3.75494 23.1511C3.54527 22.9415 3.42747 22.6571 3.42747 22.3606V4.47202C3.42747 4.1755 3.54527 3.89112 3.75494 3.68145C3.96461 3.47178 4.24899 3.35399 4.54551 3.35399H22.434C22.7306 3.35399 23.0149 3.47178 23.2246 3.68145C23.4343 3.89112 23.5521 4.1755 23.5521 4.47202V22.3606Z" fill="#FFFEFE"/>
</svg>
