<svg width="29" height="29" viewBox="0 0 29 29" fill="none" xmlns="http://www.w3.org/2000/svg">
<path d="M14.2495 4.43408C12.2985 4.43408 10.7022 6.03037 10.7022 7.98138C10.7022 9.9324 12.2985 11.5287 14.2495 11.5287C16.2005 11.5287 17.7968 9.9324 17.7968 7.98138C17.7968 6.03037 16.2005 4.43408 14.2495 4.43408ZM14.2495 11.5287H13.0257C12.2456 11.5305 11.4799 11.7381 10.8056 12.1304C10.1314 12.5228 9.57268 13.0861 9.18576 13.7635C9.81541 13.8344 10.3652 14.1714 10.72 14.6592C11.1811 13.8256 12.0591 13.3023 13.0257 13.3023H15.4734C15.8636 13.3023 16.2272 13.3821 16.5641 13.5329C16.7504 12.921 17.1938 12.4332 17.7614 12.1761C17.0737 11.7517 16.2814 11.5276 15.4734 11.5287H14.2495ZM14.2495 6.20773C15.2428 6.20773 16.0232 6.98814 16.0232 7.98138C16.0232 8.97463 15.2428 9.75503 14.2495 9.75503C13.2563 9.75503 12.4759 8.97463 12.4759 7.98138C12.4759 6.98814 13.2563 6.20773 14.2495 6.20773ZM18.6837 13.3023C18.4485 13.3023 18.2229 13.3958 18.0566 13.5621C17.8903 13.7284 17.7968 13.954 17.7968 14.1892C17.7968 14.4244 17.8903 14.6499 18.0566 14.8162C18.2229 14.9825 18.4485 15.076 18.6837 15.076C18.9189 15.076 19.1444 14.9825 19.3107 14.8162C19.4771 14.6499 19.5705 14.4244 19.5705 14.1892C19.5705 13.954 19.4771 13.7284 19.3107 13.5621C19.1444 13.3958 18.9189 13.3023 18.6837 13.3023ZM8.92858 15.076C8.69338 15.076 8.46782 15.1694 8.3015 15.3357C8.13519 15.502 8.04176 15.7276 8.04176 15.9628C8.04176 16.198 8.13519 16.4236 8.3015 16.5899C8.46782 16.7562 8.69338 16.8496 8.92858 16.8496C9.16378 16.8496 9.38935 16.7562 9.55566 16.5899C9.72198 16.4236 9.81541 16.198 9.81541 15.9628C9.81541 15.7276 9.72198 15.502 9.55566 15.3357C9.38935 15.1694 9.16378 15.076 8.92858 15.076ZM20.2179 15.7943C19.8188 16.1756 19.2778 16.4062 18.6837 16.4062C18.6393 16.4062 18.5861 16.4062 18.5418 16.3973L19.6503 18.9869L19.8188 19.4037L20.2888 19.4835L24.7229 20.3703L25.0599 18.6499L21.0958 17.8429L20.2179 15.7943ZM13.3627 15.9628C13.1275 15.9628 12.9019 16.0562 12.7356 16.2225C12.5693 16.3889 12.4759 16.6144 12.4759 16.8496C12.4759 17.0848 12.5693 17.3104 12.7356 17.4767C12.9019 17.643 13.1275 17.7365 13.3627 17.7365C13.5979 17.7365 13.8235 17.643 13.9898 17.4767C14.1561 17.3104 14.2495 17.0848 14.2495 16.8496C14.2495 16.6144 14.1561 16.3889 13.9898 16.2225C13.8235 16.0562 13.5979 15.9628 13.3627 15.9628ZM7.48306 17.6478L7.40324 17.8429L3.43914 18.6499L3.77613 20.3703L8.21026 19.4835L8.68027 19.4037L8.84877 18.9869L9.2035 18.1621C8.89657 18.2013 8.58486 18.1757 8.2884 18.0871C7.99195 17.9985 7.7182 17.8489 7.48306 17.6478ZM16.0232 18.6233C15.788 18.6233 15.5624 18.7167 15.3961 18.883C15.2298 19.0493 15.1364 19.2749 15.1364 19.5101C15.1364 19.7453 15.2298 19.9709 15.3961 20.1372C15.5624 20.3035 15.788 20.3969 16.0232 20.3969C16.2584 20.3969 16.484 20.3035 16.6503 20.1372C16.8166 19.9709 16.91 19.7453 16.91 19.5101C16.91 19.2749 16.8166 19.0493 16.6503 18.883C16.484 18.7167 16.2584 18.6233 16.0232 18.6233ZM1.83398 22.1706V23.9442H26.6651V22.1706H1.83398Z" fill="#FFFEFE"/>
</svg>
