<svg width="23" height="23" viewBox="0 0 23 23" fill="none" xmlns="http://www.w3.org/2000/svg">
<path d="M20.5824 12.1544C20.4031 11.9504 20.3043 11.6881 20.3043 11.4165C20.3043 11.1449 20.4031 10.8826 20.5824 10.6786L22.0135 9.06861C22.1712 8.89271 22.2691 8.67137 22.2932 8.43637C22.3173 8.20136 22.2663 7.96476 22.1476 7.76051L19.9116 3.89211C19.794 3.68809 19.6151 3.52638 19.4003 3.43001C19.1855 3.33365 18.9458 3.30756 18.7153 3.35545L16.6134 3.78031C16.3459 3.83557 16.0675 3.79103 15.8306 3.65509C15.5937 3.51915 15.4148 3.30121 15.3276 3.04241L14.6456 0.996403C14.5706 0.774338 14.4277 0.581461 14.2371 0.445035C14.0465 0.308609 13.8179 0.235535 13.5835 0.23614H9.11134C8.86754 0.223414 8.62627 0.290841 8.42438 0.428122C8.2225 0.565403 8.0711 0.764991 7.99331 0.996403L7.36721 3.04241C7.28 3.30121 7.10109 3.51915 6.86422 3.65509C6.62735 3.79103 6.34892 3.83557 6.08147 3.78031L3.92366 3.35545C3.70515 3.32458 3.48238 3.35906 3.28342 3.45456C3.08446 3.55006 2.91822 3.7023 2.80563 3.89211L0.569563 7.76051C0.447876 7.96248 0.393162 8.19776 0.413242 8.4327C0.433323 8.66764 0.527169 8.89021 0.681366 9.06861L2.10127 10.6786C2.28051 10.8826 2.37936 11.1449 2.37936 11.4165C2.37936 11.6881 2.28051 11.9504 2.10127 12.1544L0.681366 13.7644C0.527169 13.9427 0.433323 14.1653 0.413242 14.4003C0.393162 14.6352 0.447876 14.8705 0.569563 15.0725L2.80563 18.9408C2.92313 19.1449 3.10204 19.3066 3.31685 19.4029C3.53167 19.4993 3.77142 19.5254 4.00193 19.4775L6.10383 19.0527C6.37128 18.9974 6.64972 19.0419 6.88658 19.1779C7.12345 19.3138 7.30236 19.5317 7.38957 19.7906L8.07157 21.8366C8.14936 22.068 8.30076 22.2676 8.50265 22.4048C8.70453 22.5421 8.9458 22.6095 9.1896 22.5968H13.6617C13.8961 22.5974 14.1248 22.5243 14.3154 22.3879C14.506 22.2515 14.6489 22.0586 14.7239 21.8366L15.4059 19.7906C15.4931 19.5317 15.672 19.3138 15.9089 19.1779C16.1457 19.0419 16.4242 18.9974 16.6916 19.0527L18.7935 19.4775C19.024 19.5254 19.2638 19.4993 19.4786 19.4029C19.6934 19.3066 19.8723 19.1449 19.9898 18.9408L22.2259 15.0725C22.3446 14.8682 22.3955 14.6316 22.3714 14.3966C22.3473 14.1616 22.2494 13.9403 22.0917 13.7644L20.5824 12.1544ZM18.9165 13.6525L19.8109 14.6588L18.3798 17.1408L17.0606 16.8725C16.2553 16.7079 15.4177 16.8447 14.7066 17.2569C13.9956 17.6691 13.4607 18.328 13.2033 19.1086L12.7785 20.3608H9.91633L9.51383 19.0862C9.25653 18.3056 8.72157 17.6467 8.01053 17.2345C7.29949 16.8223 6.46185 16.6855 5.65662 16.8501L4.33734 17.1185L2.88389 14.6476L3.77832 13.6414C4.32834 13.0264 4.63242 12.2303 4.63242 11.4053C4.63242 10.5803 4.32834 9.78417 3.77832 9.16923L2.88389 8.163L4.31498 5.70333L5.63426 5.97165C6.43949 6.13625 7.27713 5.99947 7.98817 5.58727C8.69921 5.17507 9.23416 4.51615 9.49147 3.73559L9.91633 2.47221H12.7785L13.2033 3.74677C13.4607 4.52733 13.9956 5.18625 14.7066 5.59845C15.4177 6.01065 16.2553 6.14743 17.0606 5.98283L18.3798 5.71451L19.8109 8.19654L18.9165 9.20277C18.3727 9.81631 18.0724 10.6078 18.0724 11.4277C18.0724 12.2475 18.3727 13.039 18.9165 13.6525ZM11.3474 6.94434C10.4629 6.94434 9.59826 7.20663 8.86282 7.69803C8.12739 8.18944 7.55418 8.88789 7.2157 9.70507C6.87721 10.5222 6.78865 11.4214 6.96121 12.2889C7.13376 13.1565 7.55969 13.9533 8.18513 14.5788C8.81057 15.2042 9.60743 15.6301 10.4749 15.8027C11.3425 15.9752 12.2416 15.8867 13.0588 15.5482C13.876 15.2097 14.5745 14.6365 15.0659 13.9011C15.5573 13.1656 15.8195 12.301 15.8195 11.4165C15.8195 10.2304 15.3484 9.09289 14.5097 8.2542C13.671 7.41551 12.5335 6.94434 11.3474 6.94434ZM11.3474 13.6525C10.9052 13.6525 10.4728 13.5214 10.1051 13.2757C9.7374 13.03 9.4508 12.6808 9.28155 12.2722C9.11231 11.8636 9.06803 11.414 9.15431 10.9802C9.24059 10.5465 9.45355 10.1481 9.76627 9.83534C10.079 9.52262 10.4774 9.30966 10.9112 9.22338C11.3449 9.1371 11.7945 9.18138 12.2031 9.35062C12.6117 9.51987 12.9609 9.80647 13.2066 10.1742C13.4523 10.5419 13.5835 10.9742 13.5835 11.4165C13.5835 12.0095 13.3479 12.5783 12.9285 12.9976C12.5092 13.417 11.9405 13.6525 11.3474 13.6525Z" fill="#F8F8F8"/>
</svg>
