<svg width="25" height="24" viewBox="0 0 25 24" fill="none" xmlns="http://www.w3.org/2000/svg">
<path fill-rule="evenodd" clip-rule="evenodd" d="M12.9731 24C14.549 24 16.1094 23.6896 17.5653 23.0866C19.0213 22.4835 20.3441 21.5996 21.4584 20.4853C22.5727 19.371 23.4566 18.0481 24.0597 16.5922C24.6628 15.1363 24.9731 13.5759 24.9731 12C24.9731 10.4241 24.6628 8.86371 24.0597 7.4078C23.4566 5.95189 22.5727 4.62902 21.4584 3.51472C20.3441 2.40042 19.0213 1.5165 17.5653 0.913445C16.1094 0.310389 14.549 -2.34822e-08 12.9731 0C9.79055 4.74244e-08 6.7383 1.26428 4.48786 3.51472C2.23743 5.76515 0.973145 8.8174 0.973145 12C0.973145 15.1826 2.23743 18.2348 4.48786 20.4853C6.7383 22.7357 9.79055 24 12.9731 24ZM12.6638 16.8533L19.3305 8.85333L17.2825 7.14667L11.5491 14.0253L8.58248 11.0573L6.69714 12.9427L10.6971 16.9427L11.7291 17.9747L12.6638 16.8533Z" fill="#999999"/>
</svg>
