<svg width="24" height="24" viewBox="0 0 24 24" fill="none" xmlns="http://www.w3.org/2000/svg">
<path d="M0 15H2V9H0V15ZM3 17H5V7H3V17ZM22 9V15H24V9H22ZM19 17H21V7H19V17ZM16.97 4.29L19.79 7.11C20.21 7.54 20.21 8.22 19.79 8.65L16.97 11.47C16.54 11.89 15.86 11.89 15.43 11.47L12.61 8.65C12.18 8.22 12.18 7.54 12.61 7.11L15.43 4.29C15.86 3.87 16.54 3.87 16.97 4.29ZM7.05 4.29L9.87 7.11C10.3 7.54 10.3 8.22 9.87 8.65L7.05 11.47C6.62 11.89 5.94 11.89 5.51 11.47L2.69 8.65C2.26 8.22 2.26 7.54 2.69 7.11L5.51 4.29C5.94 3.87 6.62 3.87 7.05 4.29Z" fill="#1A1A1A"/>
</svg> 